<svg width="460" height="170" viewBox="0 0 460 170" fill="none" xmlns="http://www.w3.org/2000/svg">
<rect width="460" height="170" rx="4" fill="url(#paint0_linear)"/>
<path d="M0 52.3888C0 50.0335 2.02481 48.1881 4.36997 48.4059L456.37 90.3924C458.427 90.5835 460 92.3095 460 94.3753V166C460 168.209 458.209 170 456 170H4C1.79087 170 0 168.209 0 166V52.3888Z" fill="url(#paint1_linear)"/>
<path opacity="0.8" d="M140.292 24.4804C141.529 24.4804 142.532 23.4775 142.532 22.2402C142.532 21.003 141.529 20 140.292 20C139.055 20 138.052 21.003 138.052 22.2402C138.052 23.4775 139.055 24.4804 140.292 24.4804Z" fill="#F67162"/>
<path opacity="0.8" d="M51.4072 126C52.6444 126 53.6474 124.997 53.6474 123.76C53.6474 122.523 52.6444 121.52 51.4072 121.52C50.17 121.52 49.167 122.523 49.167 123.76C49.167 124.997 50.17 126 51.4072 126Z" fill="#F67162"/>
<path opacity="0.8" d="M49.0031 73.4175C49.0031 74.248 48.332 74.9191 47.5015 74.9191C46.6711 74.9191 46 74.248 46 73.4175C46 72.5871 46.6711 71.916 47.5015 71.916C48.3271 71.9208 49.0031 72.5919 49.0031 73.4175Z" fill="#E70058"/>
<path opacity="0.8" d="M223.796 157.454C223.796 158.309 223.105 159 222.251 159C221.396 159 220.705 158.309 220.705 157.454C220.705 156.599 221.396 155.909 222.251 155.909C223.105 155.909 223.796 156.599 223.796 157.454Z" fill="#E7D847"/>
<path opacity="0.8" d="M120.843 151.953C120.843 152.808 120.152 153.498 119.298 153.498C118.443 153.498 117.752 152.808 117.752 151.953C117.752 151.098 118.443 150.407 119.298 150.407C120.152 150.407 120.843 151.098 120.843 151.953Z" fill="white"/>
<path opacity="0.8" d="M320.18 146C322.697 146 324.737 143.959 324.737 141.442C324.737 138.925 322.697 136.885 320.18 136.885C317.663 136.885 315.622 138.925 315.622 141.442C315.622 143.959 317.663 146 320.18 146Z" stroke="#E70058" stroke-width="0.670563" stroke-miterlimit="10"/>
<path opacity="0.8" d="M36 145.707H33.5743C32.8675 145.707 32.2932 145.133 32.2932 144.426V142H30.7068V144.426C30.7068 145.133 30.1325 145.707 29.4257 145.707H27V147.293H29.4257C30.1325 147.293 30.7068 147.867 30.7068 148.574V151H32.2932V148.574C32.2932 147.867 32.8675 147.293 33.5743 147.293H36V145.707Z" fill="#E7D847"/>
<path opacity="0.8" d="M413.413 109.876C414.857 109.876 416.028 108.706 416.028 107.261C416.028 105.817 414.857 104.646 413.413 104.646C411.969 104.646 410.798 105.817 410.798 107.261C410.798 108.706 411.969 109.876 413.413 109.876Z" fill="#F67162"/>
<path opacity="0.8" d="M407.166 22.7527C407.166 23.722 406.382 24.5054 405.413 24.5054C404.444 24.5054 403.66 23.722 403.66 22.7527C403.66 21.7834 404.444 21 405.413 21C406.382 21 407.166 21.789 407.166 22.7527Z" fill="white"/>
<path opacity="0.8" d="M357.826 67.8207C358.753 67.8207 359.505 67.0688 359.505 66.1413C359.505 65.2138 358.753 64.4619 357.826 64.4619C356.898 64.4619 356.146 65.2138 356.146 66.1413C356.146 67.0688 356.898 67.8207 357.826 67.8207Z" fill="#E7D847"/>
<path opacity="0.8" d="M391.84 139.345H389.71C389.084 139.345 388.583 138.838 388.583 138.218V136.087H387.185V138.218C387.185 138.843 386.678 139.345 386.058 139.345H383.928V140.742H386.058C386.684 140.742 387.185 141.25 387.185 141.87V144H388.583V141.87C388.583 141.244 389.09 140.742 389.71 140.742H391.84V139.345Z" fill="#E7D847"/>
<path d="M148.715 99.1549C150.174 99.1549 151.358 97.9718 151.358 96.5123V81.4493C151.358 75.6207 146.616 70.8787 140.787 70.8787H129.904C132.387 69.8219 133.42 69.0153 134.001 68.434C137.607 64.8277 137.607 58.9599 134.001 55.3536C130.395 51.7474 124.527 51.7474 120.921 55.3536C120.158 56.1168 119.005 57.6593 117.409 62.2405C115.813 57.6593 114.661 56.1167 113.898 55.3536C110.292 51.7474 104.424 51.7474 100.818 55.3536C97.2112 58.9599 97.2112 64.8277 100.818 68.434C101.399 69.0153 102.432 69.8221 104.915 70.8787H94.2766C88.448 70.8787 83.7061 75.6207 83.7061 81.4493V109.725C83.7061 115.554 88.448 120.296 94.2766 120.296H140.787C146.616 120.296 151.358 115.554 151.358 109.725C151.358 108.266 150.174 107.083 148.715 107.083C147.255 107.083 146.072 108.266 146.072 109.725C146.072 112.64 143.701 115.011 140.787 115.011H120.174V76.29C123.024 76.8733 125.362 78.445 127.145 80.9856C129.094 83.7614 129.82 86.9576 129.82 88.3201C129.82 89.7796 131.003 90.9627 132.463 90.9627C133.922 90.9627 135.105 89.7796 135.105 88.3201C135.105 85.7347 133.982 81.5252 131.471 77.9489C131.061 77.3653 130.587 76.7619 130.047 76.164H140.787C143.701 76.164 146.072 78.535 146.072 81.4493V96.5123C146.072 97.9718 147.255 99.1549 148.715 99.1549ZM104.555 64.6969C103.806 63.948 103.394 62.9525 103.394 61.8938C103.394 60.835 103.806 59.8395 104.555 59.0908C106.1 57.5454 108.615 57.5454 110.161 59.0908C110.278 59.2082 111.359 60.4079 113.191 66.3413C113.4 67.017 113.596 67.6819 113.775 68.3114C113.154 68.1343 112.499 67.9413 111.832 67.7356C105.876 65.8991 104.672 64.8147 104.555 64.6969ZM114.889 115.011H94.2766C91.3623 115.011 88.9913 112.64 88.9913 109.725V81.4493C88.9913 78.535 91.3623 76.164 94.2766 76.164H104.492C103.052 77.726 101.828 79.6151 100.84 81.8233C98.3053 87.4871 98.1084 93.4869 98.1084 95.191C98.1084 96.6505 99.2915 97.8336 100.751 97.8336C102.211 97.8336 103.394 96.6505 103.394 95.191C103.394 94.1664 103.503 88.8114 105.664 83.9821C107.661 79.5203 110.694 76.9724 114.889 76.2491V115.011ZM123.013 67.727C122.338 67.9356 121.673 68.1316 121.043 68.311C121.223 67.6817 121.419 67.0169 121.627 66.3412C123.459 60.4079 124.541 59.208 124.658 59.0907C125.431 58.3179 126.446 57.9317 127.461 57.9317C128.476 57.9317 129.491 58.3181 130.264 59.0907C131.013 59.8395 131.425 60.8349 131.425 61.8936C131.425 62.9524 131.013 63.9479 130.264 64.6965C130.146 64.8139 128.946 65.8954 123.013 67.727Z" fill="white"/>
<path d="M224.428 79V52.495H215.068L214.888 57.895C214.738 62.125 214.393 65.62 213.853 68.38C213.313 71.14 212.533 73.315 211.513 74.905C210.523 76.465 209.248 77.575 207.688 78.235C206.158 78.865 204.298 79.18 202.108 79.18V73.825C203.218 73.825 204.178 73.585 204.988 73.105C205.798 72.625 206.473 71.755 207.013 70.495C207.583 69.235 208.033 67.45 208.363 65.14C208.693 62.83 208.918 59.845 209.038 56.185L209.353 47.05H230.593V79H224.428ZM240.235 89.17C239.605 89.17 238.96 89.095 238.3 88.945C237.67 88.795 236.935 88.57 236.095 88.27L237.265 83.5C238.165 83.89 238.96 84.085 239.65 84.085C241.24 84.085 242.38 82.99 243.07 80.8L243.79 78.865L234.25 55.42H240.505L246.85 72.835L252.43 55.42H258.19L248.56 82.375C247.78 84.535 246.64 86.2 245.14 87.37C243.67 88.57 242.035 89.17 240.235 89.17ZM274.607 79V70.54C272.927 71.29 270.977 71.665 268.757 71.665C266.267 71.665 264.317 71.005 262.907 69.685C261.497 68.335 260.792 66.37 260.792 63.79V55.42H266.822V62.98C266.822 65.71 268.082 67.075 270.602 67.075C271.322 67.075 272.027 67 272.717 66.85C273.437 66.7 274.067 66.49 274.607 66.22V55.42H280.682V79H274.607ZM286.164 79V55.42H292.194V73.735H299.709V55.42H305.784V73.735H313.254V55.42H319.284V79H286.164ZM324.792 79V55.465H330.822V70.945L341.397 55.42H346.887V79H340.857V63.88L330.417 79H324.792ZM352.39 79V55.465H358.42V70.945L368.995 55.42H374.485V79H368.455V63.88L358.015 79H352.39ZM363.46 53.215C361.15 53.215 359.335 52.63 358.015 51.46C356.695 50.26 356.035 48.73 356.035 46.87H359.77C359.77 47.77 360.055 48.52 360.625 49.12C361.225 49.72 362.17 50.02 363.46 50.02C364.72 50.02 365.62 49.735 366.16 49.165C366.73 48.595 367.075 47.83 367.195 46.87H370.93C370.93 48.73 370.27 50.26 368.95 51.46C367.63 52.63 365.8 53.215 363.46 53.215ZM194.554 119V87.05H220.429V119H214.264V92.495H200.719V119H194.554ZM237.464 119.45C234.884 119.45 232.664 118.895 230.804 117.785C228.974 116.645 227.564 115.145 226.574 113.285C225.584 111.425 225.089 109.415 225.089 107.255C225.089 105.065 225.584 103.04 226.574 101.18C227.594 99.32 229.019 97.835 230.849 96.725C232.709 95.585 234.914 95.015 237.464 95.015C240.014 95.015 242.204 95.585 244.034 96.725C245.894 97.835 247.319 99.32 248.309 101.18C249.299 103.04 249.794 105.065 249.794 107.255C249.794 109.415 249.299 111.425 248.309 113.285C247.319 115.145 245.894 116.645 244.034 117.785C242.204 118.895 240.014 119.45 237.464 119.45ZM231.299 107.255C231.299 108.635 231.569 109.865 232.109 110.945C232.649 111.995 233.384 112.82 234.314 113.42C235.244 114.02 236.294 114.32 237.464 114.32C238.604 114.32 239.639 114.02 240.569 113.42C241.499 112.79 242.234 111.95 242.774 110.9C243.344 109.82 243.629 108.59 243.629 107.21C243.629 105.86 243.344 104.66 242.774 103.61C242.234 102.53 241.499 101.69 240.569 101.09C239.639 100.46 238.604 100.145 237.464 100.145C236.294 100.145 235.244 100.46 234.314 101.09C233.384 101.69 232.649 102.53 232.109 103.61C231.569 104.66 231.299 105.875 231.299 107.255ZM251.929 124.715V113.735H252.559C253.339 113.735 254.059 113.435 254.719 112.835C255.379 112.235 255.919 111.155 256.339 109.595C256.789 108.035 257.059 105.785 257.149 102.845L257.419 95.42H275.104V113.735H278.389V124.715H273.124V119H257.239V124.715H251.929ZM260.164 113.735H269.074V100.505H262.684L262.549 103.43C262.429 106.43 262.174 108.725 261.784 110.315C261.394 111.905 260.854 113.045 260.164 113.735ZM280.677 112.025C280.677 110.495 281.097 109.16 281.937 108.02C282.807 106.85 284.007 105.95 285.537 105.32C287.067 104.69 288.822 104.375 290.802 104.375C291.792 104.375 292.797 104.465 293.817 104.645C294.837 104.795 295.722 105.02 296.472 105.32V104.06C296.472 102.56 296.022 101.405 295.122 100.595C294.252 99.785 292.947 99.38 291.207 99.38C289.917 99.38 288.687 99.605 287.517 100.055C286.347 100.505 285.117 101.165 283.827 102.035L281.892 98.075C283.452 97.055 285.042 96.29 286.662 95.78C288.312 95.27 290.037 95.015 291.837 95.015C295.197 95.015 297.807 95.855 299.667 97.535C301.557 99.215 302.502 101.615 302.502 104.735V112.25C302.502 112.91 302.607 113.375 302.817 113.645C303.027 113.885 303.402 114.035 303.942 114.095V119C303.402 119.12 302.907 119.195 302.457 119.225C302.037 119.285 301.677 119.315 301.377 119.315C300.177 119.315 299.262 119.045 298.632 118.505C298.002 117.965 297.627 117.305 297.507 116.525L297.372 115.31C296.322 116.66 295.032 117.695 293.502 118.415C292.002 119.105 290.457 119.45 288.867 119.45C287.277 119.45 285.867 119.135 284.637 118.505C283.407 117.845 282.432 116.96 281.712 115.85C281.022 114.71 280.677 113.435 280.677 112.025ZM295.347 113.24C296.097 112.52 296.472 111.83 296.472 111.17V108.785C294.912 108.155 293.337 107.84 291.747 107.84C290.157 107.84 288.867 108.185 287.877 108.875C286.887 109.535 286.392 110.42 286.392 111.53C286.392 112.43 286.752 113.24 287.472 113.96C288.192 114.68 289.227 115.04 290.577 115.04C291.477 115.04 292.347 114.875 293.187 114.545C294.057 114.215 294.777 113.78 295.347 113.24ZM322.267 119.45C320.407 119.45 318.787 119.03 317.407 118.19C316.027 117.35 314.947 116.24 314.167 114.86V128.585H308.137V95.42H313.402V99.47C314.272 98.09 315.397 97.01 316.777 96.23C318.187 95.42 319.777 95.015 321.547 95.015C323.677 95.015 325.567 95.57 327.217 96.68C328.867 97.76 330.172 99.23 331.132 101.09C332.092 102.92 332.572 104.945 332.572 107.165C332.572 109.475 332.122 111.56 331.222 113.42C330.352 115.25 329.137 116.72 327.577 117.83C326.047 118.91 324.277 119.45 322.267 119.45ZM320.242 114.32C321.472 114.32 322.537 113.99 323.437 113.33C324.367 112.64 325.087 111.755 325.597 110.675C326.137 109.565 326.407 108.395 326.407 107.165C326.407 105.845 326.122 104.66 325.552 103.61C324.982 102.53 324.202 101.69 323.212 101.09C322.252 100.46 321.142 100.145 319.882 100.145C318.742 100.145 317.602 100.52 316.462 101.27C315.322 102.02 314.557 102.965 314.167 104.105V109.64C314.707 110.96 315.532 112.07 316.642 112.97C317.752 113.87 318.952 114.32 320.242 114.32ZM347.547 119.45C344.967 119.45 342.747 118.895 340.887 117.785C339.057 116.645 337.647 115.145 336.657 113.285C335.667 111.425 335.172 109.415 335.172 107.255C335.172 105.065 335.667 103.04 336.657 101.18C337.677 99.32 339.102 97.835 340.932 96.725C342.792 95.585 344.997 95.015 347.547 95.015C350.097 95.015 352.287 95.585 354.117 96.725C355.977 97.835 357.402 99.32 358.392 101.18C359.382 103.04 359.877 105.065 359.877 107.255C359.877 109.415 359.382 111.425 358.392 113.285C357.402 115.145 355.977 116.645 354.117 117.785C352.287 118.895 350.097 119.45 347.547 119.45ZM341.382 107.255C341.382 108.635 341.652 109.865 342.192 110.945C342.732 111.995 343.467 112.82 344.397 113.42C345.327 114.02 346.377 114.32 347.547 114.32C348.687 114.32 349.722 114.02 350.652 113.42C351.582 112.79 352.317 111.95 352.857 110.9C353.427 109.82 353.712 108.59 353.712 107.21C353.712 105.86 353.427 104.66 352.857 103.61C352.317 102.53 351.582 101.69 350.652 101.09C349.722 100.46 348.687 100.145 347.547 100.145C346.377 100.145 345.327 100.46 344.397 101.09C343.467 101.69 342.732 102.53 342.192 103.61C341.652 104.66 341.382 105.875 341.382 107.255ZM363.947 119V95.42H369.977V104.33H372.002L378.392 95.42H384.962L376.592 106.805L385.862 119H378.977L371.912 109.64H369.977V119H363.947Z" fill="white"/>
<defs>
<linearGradient id="paint0_linear" x1="230.003" y1="199.599" x2="230.003" y2="24.1553" gradientUnits="userSpaceOnUse">
<stop stop-color="#081639"/>
<stop offset="1" stop-color="#251669"/>
</linearGradient>
<linearGradient id="paint1_linear" x1="240.336" y1="42.7479" x2="220.701" y2="289.271" gradientUnits="userSpaceOnUse">
<stop stop-color="#251669"/>
<stop offset="1" stop-color="#352892"/>
</linearGradient>
</defs>
</svg>
