<svg width="37" height="35" viewBox="0 0 37 35" fill="none" xmlns="http://www.w3.org/2000/svg">
<rect width="36.2069" height="35" rx="4" fill="#666666"/>
<g clip-path="url(#clip0)">
<path d="M22.5447 14.8214V13.2533C22.5447 12.2447 21.7122 11.4238 20.6689 11.4238H15.555C14.5116 11.4238 13.6621 12.2444 13.6621 13.2533V14.8211H11.6859C11.2311 14.8211 10.8623 15.1775 10.8623 15.6172V17.3478C10.8623 17.7878 11.2311 18.1439 11.6859 18.1439H11.9313L12.8312 22.9227C12.9023 23.301 13.2436 23.576 13.6413 23.576H22.5828C22.9809 23.576 23.3215 23.301 23.393 22.9224L24.2922 18.1439H24.5212C24.976 18.1439 25.3448 17.7878 25.3448 17.3478V15.6172C25.3448 15.1775 24.976 14.8211 24.5212 14.8211L22.5447 14.8214ZM15.1877 13.2533C15.1877 13.0609 15.3559 12.8986 15.555 12.8986H20.6698C20.8685 12.8986 21.0196 13.0609 21.0196 13.2533V14.8211H15.1877V13.2533ZM16.327 20.7309C16.327 21.0369 16.0739 21.2848 15.7574 21.2848C15.4411 21.2848 15.1877 21.0369 15.1877 20.7309V17.6904C15.1877 17.3844 15.4411 17.1368 15.7574 17.1368C16.0742 17.1368 16.327 17.385 16.327 17.6904V20.7309ZM18.6829 20.7309C18.6829 21.0369 18.4295 21.2848 18.1133 21.2848C17.7971 21.2848 17.5434 21.0369 17.5434 20.7309V17.6904C17.5434 17.3844 17.7971 17.1368 18.1133 17.1368C18.4298 17.1368 18.6829 17.385 18.6829 17.6904V20.7309ZM21.0389 20.7309C21.0389 21.0369 20.7855 21.2848 20.4696 21.2848C20.153 21.2848 19.8996 21.0369 19.8996 20.7309V17.6904C19.8996 17.3844 20.153 17.1368 20.4696 17.1368C20.7855 17.1368 21.0389 17.385 21.0389 17.6904V20.7309Z" fill="white"/>
</g>
<defs>
<clipPath id="clip0">
<rect width="14.4828" height="14.0003" fill="white" transform="translate(10.8623 10.5)"/>
</clipPath>
</defs>
</svg>
