<svg width="158" height="50" viewBox="0 0 158 50" fill="none" xmlns="http://www.w3.org/2000/svg">
<g opacity="0.5">
<g opacity="0.5">
<path opacity="0.5" d="M52.8995 6.08203C52.8135 6.08203 52.7299 6.08439 52.6462 6.08676C53.6642 6.1222 54.6273 6.32308 55.4923 6.67046C54.7085 6.29472 53.8291 6.08203 52.8995 6.08203Z" fill="#EA9400"/>
</g>
</g>
<g opacity="0.5">
<g opacity="0.5">
<path opacity="0.5" d="M57.4166 15.7227C57.1942 15.9661 56.9575 16.2 56.7087 16.4198C56.9646 16.2095 57.2014 15.9755 57.4166 15.7227Z" fill="#EA9400"/>
</g>
</g>
<path d="M42.6074 19.6792C42.8131 19.0435 43.0451 18.4219 43.3058 17.8193C43.0212 18.4432 42.7772 19.0765 42.6074 19.6792Z" fill="#EA9400"/>
<path d="M45.8505 13.4004C45.8505 13.4004 45.848 13.4053 45.8406 13.4153C45.8431 13.4103 45.848 13.4053 45.8505 13.4004Z" fill="#EA9400"/>
<path d="M38.6286 0.71164C35.6224 2.89285 37.398 7.04023 37.398 7.04023C16.565 -9.76433 2.17219 7.21511 6.10794 20.1062C6.20591 20.4324 6.28955 20.7372 6.3469 21.0232C6.44249 21.3658 6.49506 21.7274 6.49506 22.1008C6.49506 24.3174 4.67654 26.1158 2.43505 26.1158C1.5222 26.1158 0.678659 25.8181 0 25.3147C0.798142 29.533 6.86306 30.4097 8.82257 26.95C10.3902 29.8236 12.8754 30.4097 12.8754 30.4097C14.4908 28.4341 13.5063 24.7948 13.5063 24.7948C17.7957 25.8842 22.1138 22.0464 19.1148 15.8336C19.1148 15.8336 19.0789 20.9286 13.5732 20.3213C4.97046 19.376 7.66837 3.61599 20.6776 3.61599C29.8753 3.61599 35.2377 9.85478 38.815 13.3948C38.815 13.3948 39.8521 11.8351 41.2883 10.6086C41.2094 10.4739 41.1354 10.3416 41.0685 10.2093C41.0637 10.1974 41.0565 10.188 41.0517 10.1785C38.5999 5.42146 41.8427 1.78925 46.3257 3.82867C44.4044 0.113756 40.7602 -0.836242 38.6286 0.71164Z" fill="#EA9400"/>
<path d="M8.94922 41.707C9.47733 42.3853 10.1703 42.8933 10.9756 43.2266C10.1918 42.8744 9.49884 42.3522 8.94922 41.707Z" fill="#EA9400"/>
<g opacity="0.5">
<g opacity="0.5">
<path opacity="0.5" d="M10.9758 43.2266C11.7047 43.5527 12.5124 43.737 13.3631 43.737C13.6355 43.737 13.9031 43.7181 14.166 43.6827C12.9999 43.7677 11.9102 43.6141 10.9758 43.2266Z" fill="#EA9400"/>
</g>
</g>
<path d="M17.6309 38.653C17.6352 38.6486 17.6418 38.6443 17.6484 38.6377C17.6418 38.6443 17.6374 38.6486 17.6309 38.653Z" fill="#EA9400"/>
<path d="M17.2869 38.9456C17.2919 38.9431 17.2969 38.9381 17.2995 38.9355C17.2969 38.9381 17.2919 38.9406 17.2869 38.9456Z" fill="#EA9400"/>
<path d="M17.1648 39.0398C17.1743 39.0327 17.1813 39.0256 17.1908 39.0186C17.1813 39.0256 17.1719 39.0327 17.1648 39.0398Z" fill="#EA9400"/>
<path d="M18.2139 38.1093C18.235 38.0881 18.2561 38.067 18.2749 38.0459C18.2538 38.067 18.235 38.0881 18.2139 38.1093Z" fill="#EA9400"/>
<path d="M17.8459 38.4641C17.8629 38.4471 17.8824 38.4301 17.8993 38.4131C17.8824 38.4301 17.8654 38.4471 17.8459 38.4641Z" fill="#EA9400"/>
<path d="M18.3381 37.982C18.3593 37.9608 18.3806 37.9372 18.4018 37.916C18.3806 37.9396 18.3593 37.9608 18.3381 37.982Z" fill="#EA9400"/>
<path d="M17.9678 38.3478C17.9867 38.3289 18.0056 38.3099 18.0246 38.291C18.0056 38.3123 17.9867 38.3312 17.9678 38.3478Z" fill="#EA9400"/>
<path d="M16.4465 39.5377C16.4515 39.5352 16.4564 39.5328 16.4614 39.5303C16.4564 39.5328 16.4515 39.5352 16.4465 39.5377Z" fill="#EA9400"/>
<path d="M16.5603 39.4643C16.5669 39.46 16.5735 39.4556 16.58 39.4512C16.5735 39.4556 16.5669 39.46 16.5603 39.4643Z" fill="#EA9400"/>
<path d="M16.7993 39.3056C16.8086 39.2987 16.8178 39.2917 16.8271 39.2871C16.8178 39.2917 16.8086 39.2987 16.7993 39.3056Z" fill="#EA9400"/>
<path d="M16.6797 39.3877C16.6868 39.3829 16.6962 39.3758 16.7057 39.3711C16.6962 39.3758 16.6868 39.3806 16.6797 39.3877Z" fill="#EA9400"/>
<path d="M16.9187 39.22C16.928 39.2131 16.9372 39.2062 16.9465 39.1992C16.9395 39.2062 16.9303 39.2131 16.9187 39.22Z" fill="#EA9400"/>
<path d="M17.0405 39.1312C17.0498 39.1242 17.059 39.1173 17.0683 39.1104C17.0613 39.1173 17.0521 39.1242 17.0405 39.1312Z" fill="#EA9400"/>
<path d="M17.7288 38.5666C17.7449 38.5527 17.7587 38.5412 17.7726 38.5273C17.7587 38.5412 17.7449 38.5527 17.7288 38.5666Z" fill="#EA9400"/>
<path d="M18.1506 38.1689C18.1318 38.1877 18.1107 38.2088 18.0896 38.2276C18.1107 38.2088 18.1295 38.1901 18.1506 38.1689Z" fill="#EA9400"/>
<path d="M18.7061 37.5847C18.73 37.5584 18.7539 37.5297 18.7778 37.501C18.7539 37.5273 18.73 37.556 18.7061 37.5847Z" fill="#EA9400"/>
<path d="M18.5842 37.7175C18.6076 37.6918 18.6287 37.6683 18.6521 37.6426C18.6287 37.6683 18.6076 37.6941 18.5842 37.7175Z" fill="#EA9400"/>
<path d="M18.8306 37.443C18.8571 37.412 18.8861 37.381 18.9126 37.3477C18.8836 37.381 18.8571 37.412 18.8306 37.443Z" fill="#EA9400"/>
<path d="M18.46 37.8505C18.481 37.8271 18.5021 37.8037 18.5255 37.7803C18.5045 37.806 18.4834 37.8295 18.46 37.8505Z" fill="#EA9400"/>
<path d="M18.9524 37.3021C18.9934 37.2521 19.0344 37.2044 19.0754 37.1543C19.0344 37.2044 18.9934 37.2521 18.9524 37.3021Z" fill="#EA9400"/>
<path d="M16.7036 39.3708C16.735 39.3491 16.7664 39.3274 16.7977 39.3057C16.7688 39.3274 16.7374 39.3491 16.7036 39.3708Z" fill="#EA9400"/>
<path d="M16.9497 39.1999C16.9811 39.1781 17.0124 39.154 17.0438 39.1299C17.0124 39.154 16.9811 39.1781 16.9497 39.1999Z" fill="#EA9400"/>
<path d="M18.2129 38.1094C18.1917 38.1305 18.173 38.1516 18.1519 38.1704C18.1706 38.1493 18.1917 38.1282 18.2129 38.1094Z" fill="#EA9400"/>
<path d="M16.8279 39.2883C16.8592 39.2666 16.8906 39.2448 16.922 39.2207C16.8882 39.2448 16.8568 39.2666 16.8279 39.2883Z" fill="#EA9400"/>
<path d="M16.3364 39.603C16.3722 39.5815 16.4081 39.5576 16.4463 39.5361C16.4104 39.5576 16.3746 39.5815 16.3364 39.603Z" fill="#EA9400"/>
<path d="M18.4028 37.9149C18.4216 37.8938 18.4427 37.8727 18.4615 37.8516C18.4404 37.8727 18.4216 37.8938 18.4028 37.9149Z" fill="#EA9400"/>
<path d="M15.2986 40.0951C15.6358 39.9769 15.9826 39.8115 16.3365 39.6035C15.9826 39.8115 15.6358 39.9769 15.2986 40.0951Z" fill="#EA9400"/>
<path d="M16.4609 39.5303C16.4944 39.5088 16.5278 39.4873 16.5636 39.4658C16.5278 39.4873 16.4944 39.5088 16.4609 39.5303Z" fill="#EA9400"/>
<path d="M16.5818 39.4531C16.6128 39.4316 16.6463 39.4102 16.6797 39.3887C16.6463 39.4102 16.6128 39.4316 16.5818 39.4531Z" fill="#EA9400"/>
<path d="M17.9009 38.4113C17.9221 38.3901 17.9457 38.3689 17.9669 38.3477C17.9457 38.3689 17.9221 38.3901 17.9009 38.4113Z" fill="#EA9400"/>
<path d="M18.6536 37.644C18.6723 37.6229 18.6888 37.6041 18.7075 37.583C18.6888 37.6041 18.67 37.6252 18.6536 37.644Z" fill="#EA9400"/>
<path d="M18.0251 38.2944C18.0463 38.2733 18.0674 38.2522 18.0885 38.2334C18.0674 38.2522 18.0463 38.2733 18.0251 38.2944Z" fill="#EA9400"/>
<path d="M18.5271 37.7798C18.5459 37.7586 18.5647 37.7399 18.5834 37.7188C18.5647 37.7399 18.5459 37.761 18.5271 37.7798Z" fill="#EA9400"/>
<path d="M18.2761 38.0448C18.2972 38.0237 18.316 38.0026 18.3371 37.9814C18.316 38.0026 18.2972 38.0237 18.2761 38.0448Z" fill="#EA9400"/>
<path d="M17.7742 38.5275C17.7976 38.5064 17.821 38.4853 17.8444 38.4619C17.821 38.483 17.7976 38.5064 17.7742 38.5275Z" fill="#EA9400"/>
<path d="M17.6499 38.6376C17.6753 38.6145 17.7007 38.5914 17.7261 38.5684C17.7007 38.5914 17.6753 38.6145 17.6499 38.6376Z" fill="#EA9400"/>
<path d="M17.0718 39.1114C17.1031 39.0873 17.1345 39.0632 17.1659 39.0391C17.1345 39.0656 17.1031 39.0873 17.0718 39.1114Z" fill="#EA9400"/>
<path d="M17.1912 39.0188C17.2222 38.9925 17.2556 38.9686 17.2891 38.9424C17.2556 38.9686 17.2222 38.9925 17.1912 39.0188Z" fill="#EA9400"/>
<path d="M18.9092 37.3497C18.9232 37.3334 18.9371 37.3171 18.9511 37.3008C18.9371 37.3171 18.9232 37.3334 18.9092 37.3497Z" fill="#EA9400"/>
<path d="M17.2988 38.9308C17.4088 38.8433 17.5212 38.7512 17.6313 38.6543C17.5212 38.7512 17.4112 38.8433 17.2988 38.9308Z" fill="#EA9400"/>
<path d="M18.7803 37.5011C18.7967 37.4823 18.8131 37.4635 18.8296 37.4424C18.8131 37.4635 18.7967 37.4823 18.7803 37.5011Z" fill="#EA9400"/>
<path d="M16.0271 31.6355C16.1088 31.6307 16.188 31.6259 16.2697 31.6211C16.188 31.6259 16.1088 31.6307 16.0271 31.6355Z" fill="#EA9400"/>
<path d="M16.0105 31.6366C16.0155 31.6366 16.0205 31.6366 16.0279 31.6366C16.023 31.6341 16.0155 31.6341 16.0105 31.6366Z" fill="#EA9400"/>
<path d="M56.6799 23.1374C55.1122 20.2638 52.627 19.6777 52.627 19.6777C51.0116 21.6534 51.9962 25.2926 51.9962 25.2926C47.7091 24.2009 43.3886 28.041 46.3877 34.2538C46.3877 34.2538 46.4211 29.1588 51.9292 29.7638C60.5344 30.709 57.8341 46.4691 44.8248 46.4691C35.7179 46.4691 30.236 39.9467 26.654 36.3807C25.8941 37.6899 24.9764 38.8596 24.2882 39.6631C26.9025 43.9216 23.0647 48.0288 19.1768 46.2611C21.0885 49.494 24.3408 50.8859 26.4891 49.3593C30.1691 46.7432 28.1045 43.0519 28.1045 43.0519C48.9398 59.8541 64.5203 42.4682 59.3945 29.9836C59.2655 29.6693 59.2129 29.3526 59.1555 29.0666C59.0599 28.724 59.0074 28.3624 59.0074 27.989C59.0074 25.77 60.8259 23.974 63.0674 23.974C63.9802 23.974 64.8238 24.2718 65.5024 24.7751C64.7043 20.5568 58.6394 19.6777 56.6799 23.1374Z" fill="#EA9400"/>
<path d="M19.9536 35.9706C20.0493 35.8289 20.1425 35.6847 20.2382 35.5382C20.231 35.5335 20.2262 35.5311 20.2191 35.5264C20.0588 35.7981 19.956 35.9683 19.9536 35.9706Z" fill="#EA9400"/>
<path d="M55.4923 6.67311C54.6273 6.32572 53.6642 6.12485 52.6463 6.0894C50.1515 6.00433 47.315 6.91652 44.7174 9.12845C44.2204 9.55146 43.7329 10.0217 43.2573 10.5416C43.2024 10.6007 43.145 10.6598 43.0877 10.7189C42.8845 10.941 41.2907 12.6968 39.9501 14.4905C39.9524 14.4929 39.9525 14.4929 39.9548 14.4952C37.4003 17.9667 35.1779 21.9487 33.283 25.7298C33.283 25.7298 31.5122 20.5166 28.7928 17.6855C25.3565 14.1053 25.5142 8.17609 31.4381 10.6125C31.4381 10.6125 27.9851 5.06379 23.1795 9.9792C23.1795 9.9792 14.4048 6.90706 13.1932 15.8777C21.6478 7.41515 26.0495 19.7155 22.4411 30.7752C22.2022 31.5125 21.9345 32.2096 21.6454 32.8689C21.2152 33.8497 20.7397 34.7406 20.2331 35.5393C20.1399 35.6858 20.0443 35.83 19.9487 35.9718L19.8794 36.0734C19.6142 36.4586 19.3441 36.8202 19.0693 37.1557C19.0287 37.2054 18.9881 37.255 18.9475 37.3023C18.9331 37.3188 18.9188 37.3353 18.9045 37.3519C18.8782 37.3826 18.8519 37.4157 18.8232 37.4464C18.8065 37.4653 18.7898 37.4842 18.773 37.5055C18.7491 37.5338 18.7252 37.5598 18.7013 37.5882C18.6822 37.6095 18.6655 37.6284 18.6464 37.6496C18.6225 37.6756 18.601 37.6993 18.5771 37.7253C18.558 37.7465 18.5388 37.7654 18.5197 37.7867C18.4982 37.8103 18.4767 37.834 18.4528 37.8576C18.4337 37.8789 18.4146 37.9001 18.3931 37.9214C18.3716 37.9427 18.3501 37.9663 18.3286 37.9876C18.3094 38.0088 18.2879 38.0301 18.2664 38.0514C18.2449 38.0726 18.2258 38.0939 18.2043 38.1152C18.1828 38.1365 18.1637 38.1577 18.1422 38.1766C18.123 38.1955 18.1015 38.2168 18.08 38.2357C18.0585 38.257 18.037 38.2782 18.0155 38.2972C17.9964 38.3161 17.9773 38.335 17.9582 38.3539C17.9366 38.3751 17.9128 38.3964 17.8912 38.4177C17.8745 38.4342 17.8554 38.4508 17.8387 38.4673C17.8148 38.4886 17.7909 38.5122 17.767 38.5335C17.7526 38.5476 17.7359 38.5618 17.7216 38.5736C17.6953 38.5973 17.669 38.6209 17.6427 38.6445C17.6356 38.6493 17.6308 38.654 17.6236 38.6611C17.5137 38.758 17.4014 38.8501 17.2914 38.9376C17.2867 38.9399 17.2843 38.9447 17.2795 38.947C17.246 38.973 17.215 38.999 17.1815 39.0227C17.172 39.0297 17.1648 39.0368 17.1552 39.0439C17.1242 39.0676 17.0931 39.0912 17.062 39.1148C17.0525 39.1219 17.0429 39.129 17.0334 39.1361C17.0023 39.1597 16.9712 39.181 16.9402 39.2046C16.9306 39.2117 16.921 39.2188 16.9115 39.2259C16.8804 39.2472 16.8494 39.2708 16.8183 39.292C16.8087 39.2991 16.7992 39.3062 16.7896 39.311C16.7586 39.3322 16.7275 39.3535 16.6964 39.3748C16.6869 39.3795 16.6797 39.3866 16.6701 39.3913C16.6391 39.4126 16.6056 39.4338 16.5722 39.4551C16.565 39.4598 16.5578 39.4646 16.5507 39.4693C16.5172 39.4906 16.4837 39.5118 16.4479 39.5331C16.4431 39.5355 16.4383 39.5378 16.4336 39.5402C16.3977 39.5615 16.3619 39.5851 16.3236 39.6064C15.97 39.8143 15.6235 39.9797 15.2841 40.0979C14.9161 40.2751 14.5027 40.3744 14.0654 40.3744C12.5289 40.3744 11.2839 39.1432 11.2839 37.6236C11.2839 36.6878 11.757 35.8631 12.4763 35.3668C12.5408 35.3219 12.6077 35.2794 12.677 35.2392C13.3414 34.8209 16.0918 33.9489 18.926 34.9438C19.6644 33.8473 20.0467 32.9209 20.2331 32.3467C18.3333 31.7653 14.768 31.1131 11.1214 32.7555C9.03761 33.6181 7.57275 35.6528 7.57275 38.0278C7.57275 39.4315 8.08414 40.717 8.93246 41.7096C9.48208 42.3547 10.1751 42.877 10.9589 43.2291C11.8932 43.6167 12.9805 43.7703 14.1491 43.6828C17.0788 43.4654 20.5103 41.7309 23.2536 38.3539C24.004 37.4322 24.7017 36.3877 25.323 35.2179C26.9982 32.0702 28.1285 28.015 28.2384 23.005C28.2384 23.005 32.3151 27.9039 33.5506 34.7642C33.5506 34.7642 36.031 26.8546 38.3777 23.1114C38.1124 26.642 38.4279 30.5719 39.7326 34.2041C39.8497 34.7618 39.9548 35.1848 40.0433 35.3928C41.489 38.8265 40.103 42.5272 35.7586 41.8065C35.7586 41.8065 41.4197 45.3867 43.5967 40.2373C43.5967 40.2373 48.6555 42.2531 51.3057 39.1006C53.9558 35.9482 53.0119 32.6822 51.3415 31.4865C51.3415 31.4865 52.6486 35.8843 48.603 37.2644C45.8023 38.2168 40.5642 35.1258 41.7256 23.7376C41.8666 22.3552 42.1677 20.9892 42.5882 19.6824C42.7579 19.0798 43.0016 18.4465 43.286 17.8226C43.3935 17.5839 43.5082 17.3452 43.6253 17.1089C44.2371 15.8824 44.9301 14.7646 45.3746 14.0817C45.6159 13.713 45.7832 13.472 45.8238 13.4153C45.831 13.4058 45.8334 13.4011 45.8334 13.4011C46.1966 12.9143 46.5742 12.4487 46.9637 12.0139C48.6388 10.2297 50.1228 9.10009 51.4347 8.83542C51.6689 8.78106 51.9102 8.75034 52.1612 8.75034C53.9008 8.75034 55.3107 10.1446 55.3107 11.865C55.3107 12.4038 55.1721 12.9095 54.9284 13.3514C54.2927 14.6087 52.5387 15.5539 49.4155 15.268C49.4155 15.268 48.7583 15.1924 47.7977 14.9419C47.4631 14.8544 47.0879 14.7434 46.6936 14.6087C46.015 15.4003 45.3937 16.6292 44.9229 17.7139C45.0448 17.7635 45.1691 17.8131 45.2933 17.8628C45.874 18.1109 47.0497 18.5434 48.5432 18.7442C50.2686 18.9758 52.4168 18.8955 54.558 17.8557C55.3155 17.487 56.0443 16.9978 56.6919 16.4236C56.9404 16.2038 57.177 15.9699 57.3993 15.7264C58.2739 14.7056 58.802 13.3845 58.802 11.943C58.8211 9.62472 57.4638 7.62311 55.4923 6.67311Z" fill="#EA9400"/>
<path d="M19.8843 36.0722L19.9535 35.9707C19.932 36.0037 19.9082 36.0368 19.8843 36.0722Z" fill="#EA9400"/>
<rect x="71.926" y="28.4463" width="86.0556" height="12.933" fill="#32386B"/>
<path d="M96.7105 33.0026L97.2912 31.7799C96.5707 31.3162 95.5705 31 94.5703 31C92.8817 31 91.7525 31.8221 91.7525 33.108C91.7525 35.7324 95.7963 34.8576 95.7963 36.3964C95.7963 36.9128 95.3123 37.2079 94.5057 37.2079C93.6991 37.2079 92.6774 36.7969 91.9031 36.1223L91.3008 37.3133C92.1074 38.0195 93.2797 38.4938 94.4842 38.4938C96.1405 38.4938 97.3665 37.6928 97.3665 36.3121C97.3773 33.6666 93.3335 34.4781 93.3335 32.9815C93.3335 32.5283 93.7744 32.2859 94.452 32.2859C95.0327 32.2859 95.9039 32.5283 96.7105 33.0026Z" fill="white"/>
<path d="M104.109 31.0632V38.4411H105.55V35.4478H109.304V38.4411H110.745V31.0632H109.304V34.2146H105.55V31.0632H104.109Z" fill="white"/>
<path d="M121.403 31.0211C119.134 31.0211 117.392 32.6231 117.392 34.7522C117.392 36.8707 119.134 38.5043 121.403 38.5043C123.673 38.5043 125.415 36.8707 125.415 34.7522C125.415 32.6337 123.673 31.0211 121.403 31.0211ZM121.425 32.2859C122.801 32.2859 123.941 33.3609 123.941 34.7522C123.941 36.1434 122.801 37.2396 121.425 37.2396C120.037 37.2396 118.865 36.1434 118.865 34.7522C118.865 33.3609 120.027 32.2859 121.425 32.2859Z" fill="white"/>
<path d="M135.144 31.0632H132.057V38.4411H133.498V36.2699H135.144C137.037 36.2699 138.123 35.2897 138.123 33.6033C138.123 31.9802 137.037 31.0632 135.144 31.0632ZM135.068 35.0262H133.498V32.2964H135.068C136.144 32.2964 136.757 32.7391 136.757 33.6455C136.757 34.573 136.144 35.0262 135.068 35.0262Z" fill="white"/>
<path d="M86.387 24.7467L86.3407 16.3678L82.2293 23.1881H80.2183L76.1315 16.5935V24.7467H71.9521V8.9375H75.675L81.2916 18.0607L86.7725 8.9375H90.4954L90.5416 24.7467H86.387Z" fill="#32386B"/>
<path d="M106.574 21.2909V24.7467H93.74V8.9375H106.278V12.3934H98.2185V15.0593H105.322V18.4023H98.2185V21.2939H106.574V21.2909Z" fill="#32386B"/>
<path d="M116.074 20.5466H113.61V24.7467H109.088V8.9375H116.395C120.756 8.9375 123.498 11.1733 123.498 14.7878C123.498 17.1151 122.357 18.8293 120.371 19.778L123.819 24.7467H118.976L116.074 20.5466ZM116.12 12.4635H113.61V17.0938H116.12C117.992 17.0938 118.93 16.2367 118.93 14.7909C118.93 13.3207 117.992 12.4635 116.12 12.4635Z" fill="#32386B"/>
<path d="M125.164 16.8433C125.164 12.1003 128.933 8.62305 134.047 8.62305C139.16 8.62305 142.93 12.1003 142.93 16.8433C142.93 21.5864 139.164 25.0637 134.047 25.0637C128.933 25.0637 125.164 21.5864 125.164 16.8433ZM138.365 16.8433C138.365 14.1104 136.471 12.326 134.05 12.326C131.628 12.326 129.735 14.1104 129.735 16.8433C129.735 19.5763 131.632 21.3607 134.05 21.3607C136.468 21.3607 138.365 19.5763 138.365 16.8433Z" fill="#32386B"/>
<path d="M144.188 23.325L145.672 20.0278C147.087 20.955 149.098 21.5864 150.946 21.5864C152.818 21.5864 153.549 21.0679 153.549 20.2992C153.549 17.792 144.463 19.6221 144.463 13.7504C144.463 10.926 146.791 8.62305 151.541 8.62305C153.62 8.62305 155.767 9.09583 157.34 10.0017L155.946 13.3204C154.416 12.509 152.908 12.1003 151.516 12.1003C149.62 12.1003 148.935 12.7317 148.935 13.5217C148.935 15.9374 158 14.1317 158 19.9576C158 22.712 155.671 25.0606 150.921 25.0606C148.299 25.0637 145.696 24.3621 144.188 23.325Z" fill="#32386B"/>
</svg>
