<svg width="23" height="24" viewBox="0 0 23 24" fill="none" xmlns="http://www.w3.org/2000/svg">
<path d="M19.2782 4.22182C17.2006 2.14421 14.4382 1 11.5 1C8.56168 1 5.79942 2.14421 3.72182 4.22182C1.64421 6.29942 0.5 9.06168 0.5 12C0.5 14.9382 1.64421 17.7006 3.72182 19.7782C5.79942 21.8558 8.56168 23 11.5 23C14.4382 23 17.2006 21.8558 19.2782 19.7782C21.3558 17.7006 22.5 14.9382 22.5 12C22.5 9.06168 21.3558 6.29942 19.2782 4.22182ZM6.0146 20.0088C6.47467 17.3598 8.77014 15.4059 11.5 15.4059C14.23 15.4059 16.5253 17.3598 16.9854 20.0088C15.4236 21.0818 13.534 21.7109 11.5 21.7109C9.46603 21.7109 7.57642 21.0818 6.0146 20.0088ZM8.00241 10.6193C8.00241 8.69057 9.57144 7.1217 11.5 7.1217C13.4286 7.1217 14.9976 8.69073 14.9976 10.6193C14.9976 12.5479 13.4286 14.1169 11.5 14.1169C9.57144 14.1169 8.00241 12.5479 8.00241 10.6193ZM18.1019 19.1147C17.755 17.8815 17.066 16.7626 16.1002 15.8887C15.5077 15.3524 14.8333 14.9293 14.1082 14.631C15.4187 13.7762 16.2868 12.2973 16.2868 10.6193C16.2868 7.9799 14.1394 5.83264 11.5 5.83264C8.86061 5.83264 6.71335 7.9799 6.71335 10.6193C6.71335 12.2973 7.58145 13.7762 8.89183 14.631C8.1669 14.9293 7.49232 15.3522 6.89983 15.8885C5.9342 16.7625 5.24503 17.8813 4.89809 19.1145C2.98715 17.3399 1.78906 14.8074 1.78906 12C1.78906 6.64536 6.14536 2.28906 11.5 2.28906C16.8546 2.28906 21.2109 6.64536 21.2109 12C21.2109 14.8076 20.0128 17.34 18.1019 19.1147Z" fill="#273142" stroke="#273142" stroke-width="0.5"/>
</svg>
