<svg width="23" height="22" viewBox="0 0 23 22" fill="none" xmlns="http://www.w3.org/2000/svg">
<path fill-rule="evenodd" clip-rule="evenodd" d="M6.91699 19.2498C6.91699 18.2373 7.7378 17.4165 8.75032 17.4165C9.76285 17.4165 10.5837 18.2373 10.5837 19.2498C10.5837 20.2624 9.76285 21.0832 8.75032 21.0832C7.7378 21.0832 6.91699 20.2624 6.91699 19.2498Z" fill="#273142"/>
<path fill-rule="evenodd" clip-rule="evenodd" d="M17 19.2498C17 18.2373 17.8208 17.4165 18.8333 17.4165C19.8459 17.4165 20.6667 18.2373 20.6667 19.2498C20.6667 20.2624 19.8459 21.0832 18.8333 21.0832C17.8208 21.0832 17 20.2624 17 19.2498Z" fill="#273142"/>
<path fill-rule="evenodd" clip-rule="evenodd" d="M0.5 0.916666C0.5 0.410405 0.910405 0 1.41667 0H5.08333C5.52024 0 5.89643 0.308353 5.98217 0.736764L6.75206 4.58333H21.5833C21.8565 4.58333 22.1155 4.70518 22.2896 4.91567C22.4638 5.12616 22.5349 5.40336 22.4838 5.67171L21.0158 13.3694C20.8901 14.0025 20.5456 14.5711 20.0429 14.9758C19.5426 15.3785 18.9173 15.5934 18.2754 15.5833H9.38126C8.73934 15.5934 8.11402 15.3785 7.61377 14.9758C7.11122 14.5713 6.76691 14.0029 6.64105 13.3702C6.641 13.3699 6.6411 13.3704 6.64105 13.3702L5.10972 5.71927C5.10351 5.69396 5.09835 5.66824 5.09429 5.64215L4.33196 1.83333H1.41667C0.910405 1.83333 0.5 1.42293 0.5 0.916666ZM7.119 6.41666L8.4391 13.0122C8.48101 13.2233 8.59581 13.4128 8.76339 13.5477C8.93098 13.6826 9.14067 13.7543 9.35577 13.7502L9.37333 13.75H18.2833L18.3009 13.7502C18.516 13.7543 18.7257 13.6826 18.8933 13.5477C19.0601 13.4134 19.1746 13.225 19.217 13.0152L20.4753 6.41666H7.119Z" fill="#273142"/>
</svg>
