<svg width="22" height="22" viewBox="0 0 22 22" fill="none" xmlns="http://www.w3.org/2000/svg">
<path fill-rule="evenodd" clip-rule="evenodd" d="M10.083 3.66683C6.53918 3.66683 3.66634 6.53967 3.66634 10.0835C3.66634 13.6273 6.53918 16.5002 10.083 16.5002C13.6268 16.5002 16.4997 13.6273 16.4997 10.0835C16.4997 6.53967 13.6268 3.66683 10.083 3.66683ZM1.83301 10.0835C1.83301 5.52715 5.52666 1.8335 10.083 1.8335C14.6394 1.8335 18.333 5.52715 18.333 10.0835C18.333 14.6398 14.6394 18.3335 10.083 18.3335C5.52666 18.3335 1.83301 14.6398 1.83301 10.0835Z" fill="white"/>
<path fill-rule="evenodd" clip-rule="evenodd" d="M14.6142 14.6142C14.9722 14.2562 15.5526 14.2562 15.9106 14.6142L19.8981 18.6017C20.256 18.9597 20.256 19.5401 19.8981 19.8981C19.5401 20.256 18.9597 20.256 18.6017 19.8981L14.6142 15.9106C14.2562 15.5526 14.2562 14.9722 14.6142 14.6142Z" fill="white"/>
</svg>
