<svg width="22" height="22" viewBox="0 0 22 22" fill="none" xmlns="http://www.w3.org/2000/svg">
<path fill-rule="evenodd" clip-rule="evenodd" d="M9.95221 0.72685C10.3146 -0.242283 11.6854 -0.242284 12.0478 0.72685L14.353 6.89165L20.9284 7.17897C21.9621 7.22414 22.3857 8.52786 21.5759 9.17198L16.4252 13.2694L18.1839 19.6117C18.4603 20.6088 17.3513 21.4145 16.4885 20.8435L11 17.211L5.5115 20.8435C4.64868 21.4145 3.53967 20.6088 3.81614 19.6117L5.5748 13.2694L0.424063 9.17198C-0.385656 8.52786 0.0379494 7.22414 1.07163 7.17897L7.64704 6.89165L9.95221 0.72685ZM11 2.71561L9.08907 7.82607C8.93186 8.24651 8.53856 8.53226 8.09012 8.55186L2.63927 8.79004L6.9091 12.1867C7.26038 12.4661 7.41061 12.9284 7.29067 13.361L5.83279 18.6187L10.3826 15.6074C10.7569 15.3597 11.2431 15.3597 11.6174 15.6074L16.1672 18.6187L14.7093 13.361C14.5894 12.9285 14.7396 12.4661 15.0909 12.1867L19.3607 8.79004L13.9099 8.55186C13.4614 8.53226 13.0681 8.24651 12.9109 7.82607L11 2.71561Z" fill="#273142"/>
</svg>
