<svg width="37" height="35" viewBox="0 0 37 35" fill="none" xmlns="http://www.w3.org/2000/svg">
<rect width="36.2069" height="35" rx="4" fill="#666666"/>
<g clip-path="url(#clip0)">
<path d="M13.6385 24.3951C13.884 24.5763 14.1807 24.5194 14.5438 24.2502L18.1037 21.6099L21.6635 24.2502C22.0267 24.5194 22.3284 24.5763 22.5688 24.3951C22.8041 24.2139 22.8604 23.9137 22.7172 23.4788L21.3208 19.244L24.9063 16.6348C25.2694 16.3707 25.4126 16.0964 25.3154 15.8064C25.2234 15.5269 24.9574 15.3768 24.4971 15.3819L20.0984 15.4078L18.7533 11.1575C18.6152 10.7174 18.4003 10.5 18.1037 10.5C17.807 10.5 17.5922 10.7174 17.4541 11.1575L16.1089 15.4078L11.7103 15.3819C11.2551 15.3768 10.984 15.5269 10.8919 15.8064C10.7948 16.0964 10.938 16.3707 11.3011 16.6348L14.8865 19.244L13.4953 23.4788C13.347 23.9137 13.4033 24.2139 13.6385 24.3951Z" fill="white"/>
</g>
<defs>
<clipPath id="clip0">
<rect width="14.4828" height="14" fill="white" transform="translate(10.8623 10.5)"/>
</clipPath>
</defs>
</svg>
