<svg width="37" height="35" viewBox="0 0 37 35" fill="none" xmlns="http://www.w3.org/2000/svg">
<rect width="36.2069" height="35" rx="4" fill="#666666"/>
<g clip-path="url(#clip0)">
<path d="M18.1038 15.5908C17.0143 15.5908 16.1289 16.4467 16.1289 17.4999C16.1289 18.5531 17.0143 19.409 18.1038 19.409C19.1933 19.409 20.0787 18.5531 20.0787 17.4999C20.0787 16.4467 19.1933 15.5908 18.1038 15.5908Z" fill="white"/>
<path d="M18.1037 12.7271C14.8122 12.7271 12.0012 14.7061 10.8623 17.4998C12.0012 20.2934 14.8122 22.2725 18.1037 22.2725C21.3985 22.2725 24.2062 20.2934 25.3451 17.4998C24.2062 14.7061 21.3985 12.7271 18.1037 12.7271ZM18.1037 20.6816C16.2868 20.6816 14.8122 19.2561 14.8122 17.4998C14.8122 15.7434 16.2868 14.318 18.1037 14.318C19.9206 14.318 21.3952 15.7434 21.3952 17.4998C21.3952 19.2561 19.9206 20.6816 18.1037 20.6816Z" fill="white"/>
</g>
<defs>
<clipPath id="clip0">
<rect width="14.4828" height="14" fill="white" transform="translate(10.8623 10.5)"/>
</clipPath>
</defs>
</svg>
