<svg width="22" height="24" viewBox="0 0 22 24" fill="none" xmlns="http://www.w3.org/2000/svg">
<path d="M20.1641 12.75C20.6818 12.75 21.1016 12.3303 21.1016 11.8125V0.9375C21.1016 0.419719 20.6818 0 20.1641 0H3.71094C2.16013 0 0.898438 1.26169 0.898438 2.8125V21.1875C0.898438 22.7383 2.16013 24 3.71094 24H20.1641C20.6818 24 21.1016 23.5803 21.1016 23.0625C21.1016 22.5447 20.6818 22.125 20.1641 22.125H3.71094C3.194 22.125 2.77344 21.7044 2.77344 21.1875C2.77344 20.6706 3.194 20.25 3.71094 20.25H20.1641C20.6818 20.25 21.1016 19.8303 21.1016 19.3125V16.5C21.1016 15.9822 20.6818 15.5625 20.1641 15.5625C19.6463 15.5625 19.2266 15.9822 19.2266 16.5V18.375H6.52344V12.9831C6.52344 12.4653 6.10372 12.0456 5.58594 12.0456C5.06816 12.0456 4.64844 12.4653 4.64844 12.9831V18.375H3.71094C3.3823 18.375 3.06687 18.4322 2.77344 18.5363V2.8125C2.77344 2.29556 3.194 1.875 3.71094 1.875H4.64844V9.28125C4.64844 9.63741 4.85028 9.96286 5.16936 10.1211C5.48844 10.2794 5.86963 10.2432 6.15322 10.0276L7.92969 8.6775L9.70616 10.0276C9.87242 10.154 10.0723 10.2188 10.2735 10.2188C10.4155 10.2188 10.5581 10.1865 10.69 10.1211C11.0091 9.96286 11.2109 9.63741 11.2109 9.28125V1.875H19.2266V11.8125C19.2266 12.3303 19.6463 12.75 20.1641 12.75ZM9.33594 7.39125L8.49697 6.75361C8.16172 6.4988 7.6977 6.4988 7.36245 6.75361L6.52344 7.39125V1.875H9.33594V7.39125Z" fill="#F5921C"/>
</svg>
