<svg width="24" height="24" viewBox="0 0 24 24" fill="none" xmlns="http://www.w3.org/2000/svg">
<path d="M18.2344 19.9219C18.7521 19.9219 19.1719 19.5021 19.1719 18.9844C19.1719 18.4666 18.7521 18.0469 18.2344 18.0469C17.7166 18.0469 17.2969 18.4666 17.2969 18.9844C17.2969 19.5021 17.7166 19.9219 18.2344 19.9219Z" fill="#F5921C"/>
<path d="M14.1562 16.3594C14.674 16.3594 15.0938 15.9396 15.0938 15.4219C15.0938 14.9041 14.674 14.4844 14.1562 14.4844C13.6385 14.4844 13.2188 14.9041 13.2188 15.4219C13.2188 15.9396 13.6385 16.3594 14.1562 16.3594Z" fill="#F5921C"/>
<path d="M24 6.51562C24 4.71656 23.016 3.10491 21.2295 1.97747C19.15 0.665297 16.024 0 11.9382 0C7.82789 0 4.72261 0.644859 2.70853 1.91667C0.469875 3.33028 0 5.20805 0 6.53433C0 6.57487 0.00257812 6.61491 0.00764063 6.65419C0.0549844 7.77956 0.675891 8.75977 1.58606 9.31125C1.20717 9.84628 0.984375 10.4991 0.984375 11.2031V20.25C0.984375 22.3177 2.66663 24 4.73438 24H19.3125C21.3802 24 23.0625 22.3177 23.0625 20.25C23.0625 19.7322 22.6428 19.3125 22.125 19.3125C21.6072 19.3125 21.1875 19.7322 21.1875 20.25C21.1875 21.2839 20.3464 22.125 19.3125 22.125H4.73438C3.7005 22.125 2.85938 21.2839 2.85938 20.25V11.2031C2.85938 10.4277 3.49022 9.79688 4.26562 9.79688C4.7812 9.79688 5.20003 9.38058 5.20312 8.865C5.20622 8.34942 4.79241 7.92811 4.27688 7.92197L3.29723 7.91025C3.29348 7.9102 3.28973 7.9102 3.28603 7.9102C2.51062 7.9102 1.87978 7.28461 1.87978 6.51567C1.87978 6.48867 1.87866 6.46195 1.87636 6.43547C1.90842 5.23687 2.52478 4.25034 3.70969 3.50208C5.41936 2.42241 8.18784 1.875 11.9382 1.875C15.6118 1.875 18.4787 2.45878 20.2289 3.56316C21.796 4.55212 22.125 5.71458 22.125 6.51562C22.125 7.28456 21.4942 7.91016 20.7188 7.91016C20.7149 7.91016 20.7109 7.91016 20.707 7.9102L19.7695 7.92192C19.2541 7.92839 18.8406 8.34975 18.8438 8.86523C18.8469 9.38072 19.2658 9.79688 19.7812 9.79688C20.5567 9.79688 21.1875 10.4277 21.1875 11.2031V15.5625C21.1875 16.0803 21.6072 16.5 22.125 16.5C22.6428 16.5 23.0625 16.0803 23.0625 15.5625V11.2031C23.0625 10.4913 22.8346 9.83161 22.448 9.2933C23.379 8.7157 24 7.68652 24 6.51562Z" fill="#F5921C"/>
<path d="M15.0938 5.625C15.6115 5.625 16.0312 5.20527 16.0312 4.6875C16.0312 4.16973 15.6115 3.75 15.0938 3.75C14.576 3.75 14.1562 4.16973 14.1562 4.6875C14.1562 5.20527 14.576 5.625 15.0938 5.625Z" fill="#F5921C"/>
<path d="M6.14062 6.28125C6.65839 6.28125 7.07812 5.86152 7.07812 5.34375C7.07812 4.82598 6.65839 4.40625 6.14062 4.40625C5.62286 4.40625 5.20312 4.82598 5.20312 5.34375C5.20312 5.86152 5.62286 6.28125 6.14062 6.28125Z" fill="#F5921C"/>
<path d="M6 15.5625C6.51777 15.5625 6.9375 15.1428 6.9375 14.625C6.9375 14.1072 6.51777 13.6875 6 13.6875C5.48223 13.6875 5.0625 14.1072 5.0625 14.625C5.0625 15.1428 5.48223 15.5625 6 15.5625Z" fill="#F5921C"/>
<path d="M6.79688 20.5781C7.31464 20.5781 7.73438 20.1584 7.73438 19.6406C7.73438 19.1229 7.31464 18.7031 6.79688 18.7031C6.27911 18.7031 5.85938 19.1229 5.85938 19.6406C5.85938 20.1584 6.27911 20.5781 6.79688 20.5781Z" fill="#F5921C"/>
<path d="M15.375 12.8438C15.8928 12.8438 16.3125 12.424 16.3125 11.9062C16.3125 11.3885 15.8928 10.9688 15.375 10.9688C14.8572 10.9688 14.4375 11.3885 14.4375 11.9062C14.4375 12.424 14.8572 12.8438 15.375 12.8438Z" fill="#F5921C"/>
<path d="M9.9375 11.3438C10.4553 11.3438 10.875 10.924 10.875 10.4062C10.875 9.88848 10.4553 9.46875 9.9375 9.46875C9.41973 9.46875 9 9.88848 9 10.4062C9 10.924 9.41973 11.3438 9.9375 11.3438Z" fill="#F5921C"/>
</svg>
