<svg width="24" height="24" viewBox="0 0 24 24" fill="none" xmlns="http://www.w3.org/2000/svg">
<path d="M19.1308 4.9411C18.7578 4.58203 18.7466 3.98859 19.1059 3.6156L20.3247 2.34997C20.6837 1.97699 21.2772 1.96582 21.6502 2.32507C22.0231 2.68414 22.0343 3.27759 21.6751 3.65057L20.4563 4.9162C20.2725 5.10718 20.0267 5.20331 19.781 5.20331C19.547 5.20331 19.3126 5.11633 19.1308 4.9411ZM16.736 3.45721C16.8436 3.49731 16.9539 3.51617 17.0623 3.51617C17.4429 3.51617 17.8009 3.28253 17.9412 2.90478L18.5505 1.26416C18.7309 0.778925 18.4835 0.239312 17.9981 0.0589533C17.5127 -0.121406 16.9733 0.12597 16.7929 0.611383L16.1835 2.25201C16.0032 2.73724 16.2505 3.27685 16.736 3.45721ZM23.976 5.87769C23.779 5.39887 23.2311 5.17035 22.7523 5.36774L21.1585 6.02399C20.6797 6.22101 20.4514 6.76905 20.6486 7.24769C20.7976 7.60969 21.1472 7.8285 21.5158 7.8285C21.6348 7.8285 21.7556 7.80579 21.8725 7.75764L23.4662 7.10138C23.9448 6.90436 24.1732 6.35633 23.976 5.87769ZM14.3693 2.43384C14.1445 2.20715 13.8196 2.11065 13.5074 2.1773C13.1952 2.24395 12.9385 2.46515 12.8261 2.76397C11.8241 5.4278 11.0047 7.40058 10.1694 9.16078C9.9473 9.62843 10.1465 10.1876 10.6144 10.4097C11.082 10.6317 11.6412 10.4324 11.8633 9.96461C12.5716 8.47193 13.2665 6.83716 14.0613 4.78601L19.328 10.0964C18.0045 10.6192 16.7946 11.1189 15.6584 11.6113C15.6472 11.616 15.6362 11.6212 15.6252 11.6263L11.9221 13.405C11.9148 13.4086 11.9073 13.4123 11.8999 13.416C10.8723 13.9435 9.91562 14.4714 9.01235 15.0105C9.29159 14.3119 9.43203 13.6013 9.4216 12.9234C9.39871 11.4104 8.65164 10.0391 7.37191 9.16132C6.33955 8.45325 5.09388 8.18995 3.86451 8.42048C2.63513 8.65083 1.56927 9.34718 0.863214 10.381C0.327262 11.1663 0.0449123 12.0835 0.0469265 13.0333C0.0502224 14.5761 0.815789 16.0208 2.09479 16.8981C2.52179 17.1911 3.10517 17.0823 3.39814 16.6553C3.69111 16.2283 3.58234 15.6447 3.15534 15.3519C2.38501 14.8235 1.92395 13.9552 1.92193 13.0292C1.92065 12.4596 2.09021 11.9094 2.41174 11.4382C2.8349 10.8186 3.47358 10.4013 4.21003 10.2633C4.94667 10.1254 5.69264 10.283 6.31136 10.7075C7.09432 11.2447 7.53322 12.0418 7.54696 12.9518C7.55575 13.5295 7.38326 14.166 7.04689 14.7951C6.56459 15.7039 5.84389 16.7122 4.84358 17.8775C3.62354 19.0928 2.76093 19.5919 0.685418 20.2901C0.378166 20.3936 0.145987 20.6485 0.0718289 20.9641C-0.00251221 21.2798 0.0917875 21.6114 0.320853 21.841L2.20135 23.7248C2.37933 23.9032 2.61884 24 2.86493 24C2.93964 24 3.01508 23.9911 3.08942 23.9727C3.40839 23.894 3.66291 23.654 3.76032 23.3401C4.41199 21.2381 4.95875 20.4199 6.15334 19.2195C8.08456 17.7201 10.1813 16.4066 12.7452 15.0897L16.4205 13.3244C17.8996 12.6837 19.5078 12.0299 21.3367 11.3256C21.6322 11.2119 21.8501 10.9567 21.9166 10.647C21.9829 10.3376 21.8884 10.0153 21.6655 9.79066L14.3693 2.43384Z" fill="#F5921C"/>
</svg>
