<svg width="24" height="24" viewBox="0 0 24 24" fill="none" xmlns="http://www.w3.org/2000/svg">
<path d="M11.0625 12C11.0625 11.4822 11.4822 11.0625 12 11.0625C12.5178 11.0625 12.9375 11.4822 12.9375 12C12.9375 12.5178 12.5178 12.9375 12 12.9375C11.4822 12.9375 11.0625 12.5178 11.0625 12ZM4.6875 11.0625C4.16968 11.0625 3.75 11.4822 3.75 12C3.75 12.5178 4.16968 12.9375 4.6875 12.9375C5.20532 12.9375 5.625 12.5178 5.625 12C5.625 11.4822 5.20532 11.0625 4.6875 11.0625ZM19.3125 11.0625C18.7947 11.0625 18.375 11.4822 18.375 12C18.375 12.5178 18.7947 12.9375 19.3125 12.9375C19.8303 12.9375 20.25 12.5178 20.25 12C20.25 11.4822 19.8303 11.0625 19.3125 11.0625ZM7.5 12C7.5 9.51874 9.51874 7.5 12 7.5C14.4813 7.5 16.5 9.51874 16.5 12C16.5 14.4813 14.4813 16.5 12 16.5C9.51874 16.5 7.5 14.4813 7.5 12ZM9.375 12C9.375 13.4474 10.5526 14.625 12 14.625C13.4474 14.625 14.625 13.4474 14.625 12C14.625 10.5526 13.4474 9.375 12 9.375C10.5526 9.375 9.375 10.5526 9.375 12ZM6.34259 9.05823C7.44635 6.94061 9.61414 5.625 12 5.625C12.5178 5.625 12.9375 5.20532 12.9375 4.6875C12.9375 4.16968 12.5178 3.75 12 3.75C8.91266 3.75 6.10785 5.45197 4.67981 8.19177C4.44049 8.65082 4.61884 9.21716 5.07788 9.4563C5.21631 9.52844 5.36444 9.56268 5.51038 9.56268C5.84875 9.56268 6.17542 9.37903 6.34259 9.05823ZM18.9034 14.5937C18.446 14.3511 17.8786 14.525 17.636 14.9826C16.526 17.0751 14.3663 18.375 12 18.375C11.4822 18.375 11.0625 18.7947 11.0625 19.3125C11.0625 19.8303 11.4822 20.25 12 20.25C15.0621 20.25 17.8563 18.5684 19.2924 15.8611C19.535 15.4037 19.3608 14.8363 18.9034 14.5937ZM20.4853 3.51471C18.2188 1.24823 15.2053 0 12 0C8.79474 0 5.78119 1.24823 3.51471 3.51471C1.24823 5.78119 0 8.79474 0 12C0 15.2053 1.24823 18.2188 3.51471 20.4853C5.78119 22.7518 8.79474 24 12 24C14.1943 24 16.3414 23.402 18.2091 22.2706C18.652 22.0023 18.7936 21.4259 18.5253 20.983C18.2571 20.54 17.6805 20.3985 17.2377 20.6669C15.663 21.6207 13.8519 22.125 12 22.125C6.41711 22.125 1.875 17.5829 1.875 12C1.875 6.41711 6.41711 1.875 12 1.875C17.5829 1.875 22.125 6.41711 22.125 12C22.125 13.9964 21.5314 15.9395 20.4082 17.6195C20.1204 18.05 20.2361 18.6323 20.6666 18.9199C21.0969 19.2078 21.6791 19.092 21.967 18.6617C23.2969 16.6723 24 14.3687 24 12C24 8.79474 22.7518 5.78119 20.4853 3.51471Z" fill="#F5921C"/>
</svg>
