<svg width="18" height="24" viewBox="0 0 18 24" fill="none" xmlns="http://www.w3.org/2000/svg">
<path d="M17.2502 22.0928C17.2479 22.0249 17.1891 20.4042 16.8447 18.2723C16.7621 17.7612 16.2807 17.4143 15.7696 17.4963C15.2584 17.5791 14.9111 18.0603 14.9936 18.5715C15.2119 19.9219 15.3095 21.0705 15.35 21.6828C14.7653 21.8472 13.1615 22.125 9.00079 22.125C4.80676 22.125 3.21795 21.8284 2.65033 21.6574C2.70379 20.8513 2.85943 19.0694 3.27343 17.1178C3.98462 13.7644 5.12078 11.4285 6.55908 10.3625C6.56036 10.3616 6.56164 10.3603 6.56292 10.3594H8.57891C9.09674 10.3594 9.51641 9.93971 9.51641 9.42189C9.51641 8.90407 9.09674 8.48439 8.57891 8.48439H6.81945C6.66418 7.05324 6.38916 4.41231 6.25952 2.52376C6.9458 2.7618 7.85363 2.95314 9.00079 2.95314C10.1452 2.95314 11.0514 2.76271 11.7369 2.52541C11.5485 5.17659 11.075 9.45229 11.069 9.50594C11.0322 9.83754 11.1744 10.1638 11.4425 10.3625C12.4128 11.0817 13.2415 12.3714 13.9055 14.1956C14.0441 14.5763 14.4035 14.8127 14.7866 14.8127C14.8929 14.8127 15.0013 14.7944 15.107 14.7559C15.5935 14.5789 15.8444 14.0409 15.6675 13.5544C14.9665 11.6287 14.0668 10.169 12.9881 9.20601C13.0553 8.58455 13.1738 7.46925 13.2944 6.2364L16.5092 4.99989C16.7483 4.90798 16.9393 4.72231 17.038 4.48592C17.1365 4.24934 17.1342 3.98293 17.0312 3.74837C15.6854 0.679887 13.0709 0.0489051 12.9603 0.0236365L12.9601 0.0241859C12.8927 0.00880501 12.8227 1.59458e-05 12.7508 1.59458e-05C12.506 1.59458e-05 12.2837 0.0946815 12.1167 0.248307L12.1161 0.247575C12.1161 0.247575 12.1196 0.244096 12.1269 0.23787C12.0872 0.272111 11.1276 1.07814 9.00079 1.07814C6.87402 1.07814 5.91436 0.272111 5.87463 0.237687C5.87573 0.238785 5.87609 0.239152 5.87701 0.239884C5.86401 0.228165 5.85046 0.21663 5.83654 0.205643C5.61425 0.0276649 5.3233 -0.0395348 5.04534 0.022721C4.93273 0.0479896 2.27038 0.677689 0.923458 3.74837C0.820553 3.98293 0.818172 4.24953 0.916683 4.48592C1.01538 4.72231 1.20636 4.90798 1.44549 5.00008L4.70184 6.25252C4.82342 7.48152 4.94354 8.58821 5.0122 9.20656C3.38934 10.6522 2.18652 13.1884 1.43304 16.7575C0.843075 19.5533 0.754818 21.9454 0.751339 22.0457C0.750972 22.0565 0.750789 22.0673 0.750789 22.0781V22.0988C0.742366 22.3512 0.831722 22.6069 1.00604 22.8197C1.33398 23.2196 1.94262 23.4707 3.04089 23.6587C4.36346 23.8852 6.36865 24 9.00079 24C11.6525 24 13.6663 23.8892 14.9861 23.671C16.0815 23.4897 16.685 23.2445 17.0041 22.8512C17.1732 22.6428 17.2592 22.3927 17.2508 22.1448V22.125C17.2508 22.1142 17.2506 22.1036 17.2502 22.0928ZM14.8387 3.63356L13.4876 4.15321C13.5418 3.52663 13.5896 2.92275 13.6251 2.38899C14.0139 2.66072 14.4511 3.05861 14.8387 3.63356ZM5.88543 0.247575L5.88525 0.247758C5.8825 0.245194 5.87994 0.242631 5.87719 0.240067C5.88232 0.244645 5.88543 0.247575 5.88543 0.247575ZM3.11816 3.63448C3.51641 3.04891 3.9696 2.64699 4.37115 2.37489C4.40576 2.92146 4.45355 3.53505 4.50811 4.16896L3.11816 3.63448ZM2.61865 22.2402C2.62139 22.2173 2.62341 22.1942 2.62469 22.1713C2.62359 22.1939 2.62158 22.2168 2.61865 22.2402ZM15.3811 22.27C15.3844 22.3013 15.3892 22.3327 15.3956 22.3634C15.389 22.3316 15.3842 22.3006 15.3811 22.27ZM15.376 22.1752C15.376 22.2059 15.3774 22.2367 15.3807 22.2673C15.3774 22.2358 15.376 22.205 15.376 22.1752Z" fill="#F5921C"/>
</svg>
