<svg width="20" height="24" viewBox="0 0 20 24" fill="none" xmlns="http://www.w3.org/2000/svg">
<path d="M9.01562 18.1875V15.8438H6.67188C6.15405 15.8438 5.73438 15.4241 5.73438 14.9062C5.73438 14.3884 6.15405 13.9688 6.67188 13.9688H9.01562V11.625C9.01562 11.1072 9.4353 10.6875 9.95312 10.6875C10.4709 10.6875 10.8906 11.1072 10.8906 11.625V13.9688H13.2344C13.7522 13.9688 14.1719 14.3884 14.1719 14.9062C14.1719 15.4241 13.7522 15.8438 13.2344 15.8438H10.8906V18.1875C10.8906 18.7053 10.4709 19.125 9.95312 19.125C9.4353 19.125 9.01562 18.7053 9.01562 18.1875ZM14.9263 5.4873C12.835 2.65265 10.7782 0.39917 10.6916 0.304504C10.514 0.110413 10.2629 0 10 0C9.73706 0 9.48602 0.110413 9.30841 0.304504C9.2218 0.39917 7.16498 2.65283 5.07373 5.4873C2.18396 9.4043 0.71875 12.4164 0.71875 14.4402V14.6966C0.71875 19.8265 4.8822 24 10 24C11.5899 24 13.1591 23.5898 14.5379 22.8138C14.9893 22.5599 15.1491 21.9882 14.8951 21.537C14.6412 21.0859 14.0697 20.9258 13.6183 21.1798C12.5197 21.7982 11.2686 22.125 10 22.125C5.9162 22.125 2.59375 18.7927 2.59375 14.6964V14.4402C2.59375 12.8732 4.00696 10.0935 6.57318 6.61322C7.89026 4.82684 9.22089 3.24792 10.0002 2.35144C10.7769 3.24518 12.1019 4.81732 13.4175 6.60059C15.9896 10.0869 17.4062 12.8712 17.4062 14.4402V14.6966C17.4062 15.9084 17.1248 17.0636 16.5698 18.1296C16.3307 18.5889 16.5092 19.155 16.9684 19.3942C17.4275 19.6331 17.9938 19.4548 18.233 18.9955C18.9187 17.6781 19.2812 16.1917 19.2812 14.6964V14.4402C19.2812 12.4164 17.816 9.4043 14.9263 5.4873Z" fill="#F5921C"/>
</svg>
