<svg width="24" height="24" viewBox="0 0 24 24" fill="none" xmlns="http://www.w3.org/2000/svg">
<path d="M16.8231 4.94203C16.417 4.90566 16.1017 4.56211 16.1017 4.15153V0H7.84209V4.15153C7.84209 4.56211 7.52671 4.90566 7.12068 4.94203C7.12068 4.94203 4.4171 4 0.999595 4.94203C-0.526344 5.36265 0.082213 8.99517 0.082213 8.99517C0.082213 12.1787 1.32196 15.1717 3.57304 17.4228C5.25998 19.1097 7.36359 20.2286 9.65179 20.6835L9.09163 22.5938H7.14506V24H16.8563V22.5938H14.9098L14.3496 20.6835C16.6377 20.2286 18.7412 19.1098 20.4282 17.4229C22.6792 15.1719 23.919 12.179 23.9191 8.99555C23.9191 8.99555 25.3166 5.87809 23.9995 5C22.4995 4 16.8231 4.94203 16.8231 4.94203ZM9.24834 4.15153V1.40625H14.6954V4.15153C14.6954 5.22553 15.475 6.13359 16.5099 6.3172C16.3692 7.27153 15.9299 8.15897 15.2385 8.86669C14.3856 9.73973 13.2601 10.2205 12.0696 10.2205H11.9318C10.7413 10.2205 9.61593 9.73969 8.76295 8.86669C8.06891 8.15634 7.62909 7.26492 7.49001 6.30656C8.49684 6.10059 9.24834 5.20598 9.24834 4.15153ZM11.1017 12.5272C11.1017 12.0315 11.505 11.6282 12.0007 11.6282C12.4964 11.6282 12.8997 12.0315 12.8997 12.5272V14.416C12.8997 14.9117 12.4964 15.315 12.0007 15.315C11.505 15.315 11.1017 14.9117 11.1017 14.416V12.5272ZM13.4443 22.5938H10.5571L11.0606 20.8768C11.3718 20.901 11.6852 20.9136 12.0006 20.9136C12.3161 20.9136 12.6296 20.901 12.9407 20.8768L13.4443 22.5938ZM22.5128 8.9955C22.5128 11.8034 21.4192 14.4431 19.4338 16.4285C17.4483 18.414 14.8085 19.5074 12.0006 19.5074C9.19274 19.5074 6.55293 18.4139 4.5674 16.4284C2.58192 14.4429 1.48846 11.8031 1.48846 8.99517V6.34828H6.07729C6.23123 7.66083 6.81402 8.88417 7.75706 9.84942C8.41326 10.5211 9.1942 11.0156 10.0446 11.3102C9.82373 11.6636 9.69548 12.0806 9.69548 12.5272V14.416C9.69548 15.6871 10.7296 16.7212 12.0007 16.7212C13.2718 16.7212 14.3059 15.6871 14.3059 14.416V12.5272C14.3059 12.0805 14.1777 11.6636 13.9567 11.3102C14.8072 11.0156 15.5881 10.5211 16.2443 9.84942C17.1874 8.88417 17.7702 7.66083 17.9241 6.34828H22.5129L22.5128 8.9955Z" fill="#F5921C"/>
</svg>
