<svg width="18" height="24" viewBox="0 0 18 24" fill="none" xmlns="http://www.w3.org/2000/svg">
<path d="M16.3776 6.32198C17.1367 5.72048 17.625 4.79147 17.625 3.75C17.625 1.94072 16.153 0.46875 14.3438 0.46875C13.9473 0.46875 13.5652 0.539672 13.2101 0.669797C13.171 0.538453 13.1034 0.415734 13.0098 0.311484C12.832 0.11325 12.5782 0 12.312 0H5.67891C5.41242 0 5.15855 0.113391 4.9807 0.311859C4.88827 0.415031 4.82119 0.536156 4.78191 0.665859C4.42898 0.537938 4.04953 0.46875 3.65625 0.46875C1.84697 0.46875 0.375 1.94072 0.375 3.75C0.375 4.79147 0.863297 5.72044 1.62234 6.32198C0.638719 7.23797 0.140625 8.56223 0.140625 10.2656C0.140625 12.6855 1.09566 16.016 2.57367 18.7505C4.40334 22.1357 6.68559 24 9 24C11.0359 24 13.0271 22.57 14.7584 19.8647C15.0375 19.4286 14.9102 18.8489 14.4741 18.5698C14.038 18.2907 13.4582 18.418 13.1791 18.8541C11.8292 20.9633 10.345 22.125 9 22.125C7.42959 22.125 5.68847 20.5701 4.22311 17.859C3.89306 17.2484 3.59016 16.5998 3.32133 15.9375H12.0938C12.6115 15.9375 13.0312 15.5178 13.0312 15C13.0312 14.4822 12.6115 14.0625 12.0938 14.0625H2.66273C2.47172 13.4218 2.31825 12.7896 2.20894 12.1875H13.0312C13.549 12.1875 13.9688 11.7678 13.9688 11.25C13.9688 10.7322 13.549 10.3125 13.0312 10.3125H2.01623C2.01614 10.297 2.01562 10.281 2.01562 10.2656C2.01562 8.55431 2.62655 7.88883 3.08611 7.53713C3.74911 7.02975 4.76372 6.73294 6.27923 6.60295C6.53086 6.58139 6.76312 6.45923 6.92344 6.26409C7.08375 6.069 7.15861 5.81747 7.131 5.56645L6.72516 1.875H11.2669L10.8649 5.56711C10.8376 5.81803 10.9126 6.06933 11.073 6.26428C11.2333 6.45919 11.4655 6.58116 11.717 6.60267C13.2339 6.73242 14.2494 7.02914 14.913 7.53647C15.3729 7.88812 15.9844 8.55366 15.9844 10.2656C15.9844 11.5018 15.6691 13.1093 15.0968 14.7919C14.9301 15.282 15.1923 15.8146 15.6825 15.9813C16.1726 16.148 16.7052 15.8858 16.8719 15.3957C17.5087 13.5237 17.8594 11.7018 17.8594 10.2656C17.8594 8.56223 17.3612 7.23797 16.3776 6.32198ZM3.73814 5.16037C3.71109 5.15803 3.68391 5.15625 3.65625 5.15625C2.88084 5.15625 2.25 4.52541 2.25 3.75C2.25 2.97459 2.88084 2.34375 3.65625 2.34375C4.27411 2.34375 4.81345 2.73923 4.99828 3.3278C4.99838 3.32817 4.99856 3.3285 4.9987 3.32888L5.16544 4.84561C4.64109 4.92436 4.16733 5.02875 3.73814 5.16037ZM12.99 3.37125C13.1588 2.76445 13.7089 2.34375 14.3438 2.34375C15.1192 2.34375 15.75 2.97459 15.75 3.75C15.75 4.52541 15.1192 5.15625 14.3438 5.15625C14.316 5.15625 14.2888 5.15803 14.2617 5.16037C13.8312 5.02833 13.3559 4.9237 12.8296 4.84486L12.99 3.37125Z" fill="#F5921C"/>
</svg>
