<svg width="24" height="24" viewBox="0 0 24 24" fill="none" xmlns="http://www.w3.org/2000/svg">
<path d="M17.8359 8.15625C17.3231 8.15625 15.9609 8.15625 15.9609 4.6875V3.75H16.9453C17.4631 3.75 17.8828 3.33028 17.8828 2.8125C17.8828 2.29472 17.4631 1.875 16.9453 1.875H15.9609V0.9375C15.9609 0.419719 15.5412 0 15.0234 0H6.07031C4.49362 0 3.21094 1.28269 3.21094 2.85938C3.21094 4.26005 4.2233 5.42873 5.55469 5.67216V7.07812H5.13281C4.61503 7.07812 4.19531 7.49784 4.19531 8.01562V10.3594C4.19531 10.6178 3.98503 10.8281 3.72656 10.8281H2.74219C1.44984 10.8281 0.398438 11.8795 0.398438 13.1719V18.6797C0.398438 21.6133 2.78513 24 5.71875 24H11.0156C13.5984 24 15.8012 22.1569 16.2534 19.6175C16.3441 19.1077 16.0045 18.6209 15.4947 18.5302C14.9849 18.4394 14.4982 18.7791 14.4074 19.2888C14.1148 20.9322 12.6884 22.125 11.0156 22.125H5.71875C3.819 22.125 2.27344 20.5794 2.27344 18.6797V17.9531H11.6484C12.1662 17.9531 12.5859 17.5334 12.5859 17.0156C12.5859 16.4978 12.1662 16.0781 11.6484 16.0781H2.27344V13.1719C2.27344 12.9134 2.48372 12.7031 2.74219 12.7031H3.72656C5.01891 12.7031 6.07031 11.6517 6.07031 10.3594V8.95312H10.7109V10.3594C10.7109 11.6517 11.7623 12.7031 13.0547 12.7031H13.9922C14.2507 12.7031 14.4609 12.9134 14.4609 13.1719V15.1875C14.4609 15.7053 14.8807 16.125 15.3984 16.125C15.9162 16.125 16.3359 15.7053 16.3359 15.1875V13.1719C16.3359 11.8795 15.2845 10.8281 13.9922 10.8281H13.0547C12.7962 10.8281 12.5859 10.6178 12.5859 10.3594V8.01562C12.5859 7.49784 12.1662 7.07812 11.6484 7.07812H11.1797V5.625H14.117C14.1642 6.27975 14.2797 7.02605 14.5554 7.72631C15.1407 9.21267 16.3057 10.0312 17.8359 10.0312C18.3537 10.0312 18.7734 9.61153 18.7734 9.09375C18.7734 8.57597 18.3537 8.15625 17.8359 8.15625ZM10.2422 3.75C9.72441 3.75 9.30469 4.16972 9.30469 4.6875V7.07812H7.42969V4.78125C7.42969 4.26347 7.00997 3.84375 6.49219 3.84375H6.07031C5.5275 3.84375 5.08594 3.40219 5.08594 2.85938C5.08594 2.31656 5.5275 1.875 6.07031 1.875H14.0859V3.75H10.2422ZM23.6016 4.6875C23.6016 5.20528 23.1818 5.625 22.6641 5.625C22.1463 5.625 21.7266 5.20528 21.7266 4.6875C21.7266 4.16972 22.1463 3.75 22.6641 3.75C23.1818 3.75 23.6016 4.16972 23.6016 4.6875ZM21.7266 0.9375C21.7266 0.419719 22.1463 0 22.6641 0C23.1818 0 23.6016 0.419719 23.6016 0.9375C23.6016 1.45528 23.1818 1.875 22.6641 1.875C22.1463 1.875 21.7266 1.45528 21.7266 0.9375ZM21.2109 2.8125C21.2109 3.33028 20.7912 3.75 20.2734 3.75C19.7557 3.75 19.3359 3.33028 19.3359 2.8125C19.3359 2.29472 19.7557 1.875 20.2734 1.875C20.7912 1.875 21.2109 2.29472 21.2109 2.8125Z" fill="#F5921C"/>
</svg>
