<svg width="24" height="24" viewBox="0 0 24 24" fill="none" xmlns="http://www.w3.org/2000/svg">
<path d="M22.5929 11.7667H21.1398V11.3448C21.1398 10.3279 20.5875 9.21108 19.5847 8.20023C18.7299 7.33858 17.6815 6.68529 16.7804 6.45275C16.7466 6.44403 16.7128 6.43761 16.679 6.43273C16.6092 4.95436 16.0532 3.55904 15.0601 2.37972C14.1199 1.26327 12.8598 0.431854 11.5118 0.0387168C11.1727 -0.0601417 10.8062 0.0384824 10.5647 0.296246C10.3232 0.554009 10.2465 0.924224 10.3672 1.25619C10.4183 1.39967 10.4993 1.70754 10.4993 1.92307C10.4993 2.37307 9.89639 2.68741 8.90345 3.15161C7.71687 3.70632 6.09177 4.46611 6.09177 6.28241C6.09177 6.87645 6.25813 7.43102 6.5675 7.89653C5.81531 8.1219 5.11688 8.37006 4.52743 8.71482C3.4202 9.36248 2.85874 10.2789 2.85874 11.4386V11.7667H1.40563C0.887854 11.7667 0.46814 12.1864 0.46814 12.7042C0.46814 17.5867 3.57259 22.4182 7.6894 23.9426C7.79365 23.9812 7.90385 24.001 8.01494 24.001H15.9836C16.0947 24.001 16.205 23.9812 16.3092 23.9426C17.4628 23.5155 18.5461 22.8346 19.5289 21.9191C19.9077 21.5662 19.9287 20.973 19.5758 20.5941C19.2229 20.2153 18.6296 20.1943 18.2508 20.5472C17.4945 21.2517 16.6741 21.7823 15.81 22.126H8.1888C5.15484 20.9157 2.74573 17.3356 2.38882 13.6417H21.6102C21.4872 14.9259 21.1152 16.2254 20.5165 17.4481C20.2888 17.9131 20.4812 18.4747 20.9462 18.7024C21.4111 18.9301 21.9727 18.7378 22.2004 18.2727C23.0706 16.4959 23.5305 14.5704 23.5305 12.7042C23.5304 12.1864 23.1107 11.7667 22.5929 11.7667ZM16.3902 8.29103C16.9449 8.46006 17.6815 8.94408 18.2536 9.52073C18.8868 10.159 19.2648 10.8409 19.2648 11.3449V11.7667H12.692C13.6319 11.2912 14.4141 10.7664 15.0244 10.2005C15.6632 9.60801 16.1192 8.96944 16.3902 8.29103ZM4.73372 11.4386C4.73372 10.4491 5.74621 10.0641 8.05647 9.42145C9.57225 8.99982 11.2903 8.52198 12.62 7.49243C13.0294 7.17546 13.1044 6.58662 12.7874 6.17722C12.4704 5.76777 11.8815 5.69296 11.4722 6.00983C10.7306 6.584 9.77217 6.95543 8.76957 7.26443C8.51865 7.2393 7.96671 6.99204 7.96671 6.28236C7.96671 5.72071 8.521 5.40013 9.6975 4.85006C10.2758 4.57969 10.8738 4.30018 11.3613 3.90755C11.8771 3.49211 12.1978 3.00227 12.3191 2.44643C13.693 3.31459 14.8117 4.85058 14.8117 6.7511C14.8117 8.48471 12.7651 9.72787 11.0482 10.4654C8.99152 11.349 6.88733 11.7305 6.86633 11.7343C6.82311 11.742 6.78162 11.7535 6.74098 11.7666H4.73372V11.4386Z" fill="#F5921C"/>
</svg>
