<svg width="20" height="24" viewBox="0 0 20 24" fill="none" xmlns="http://www.w3.org/2000/svg">
<path d="M12.6583 6.5625H11.3596V4.6875H12.2971C12.8149 4.6875 13.2346 4.26778 13.2346 3.75C13.2346 3.23222 12.8149 2.8125 12.2971 2.8125H11.3596V1.875C11.3596 0.841125 10.5184 0 9.48457 0H7.60957C6.5757 0 5.73457 0.841125 5.73457 1.875V6.5625H4.52961C3.48073 6.5625 2.48004 7.01264 1.78409 7.79742C1.09001 8.58014 0.762637 9.62414 0.885262 10.6629L2.17254 23.1586C2.22176 23.6366 2.62456 24 3.10512 24H14.0827C14.5633 24 14.966 23.6366 15.0153 23.1586L15.2471 20.9086C15.3002 20.3935 14.9257 19.933 14.4106 19.88C13.8957 19.8267 13.4351 20.2014 13.382 20.7165L13.2369 22.125H3.95098L2.74957 10.4633C2.74901 10.458 2.74845 10.4526 2.74779 10.4473C2.6855 9.93028 2.8415 9.43102 3.18696 9.04144C3.53229 8.65195 4.00915 8.4375 4.52961 8.4375H12.6583C13.1787 8.4375 13.6556 8.65195 14.0009 9.04144C14.3464 9.43106 14.5024 9.93028 14.4401 10.4473C14.4394 10.4526 14.4389 10.458 14.4383 10.4633L13.8311 16.357C13.778 16.8721 14.1525 17.3326 14.6676 17.3857C15.183 17.4391 15.6432 17.0642 15.6962 16.5492L16.3026 10.6628C16.4252 9.62409 16.0979 8.58009 15.4038 7.79737C14.7079 7.01264 13.7072 6.5625 12.6583 6.5625ZM7.60957 1.875H9.48457V6.5625H7.60957V1.875ZM19.1408 5.625C19.1408 6.14278 18.7211 6.5625 18.2033 6.5625C17.6855 6.5625 17.2658 6.14278 17.2658 5.625C17.2658 5.10722 17.6855 4.6875 18.2033 4.6875C18.7211 4.6875 19.1408 5.10722 19.1408 5.625ZM17.2658 1.875C17.2658 1.35722 17.6855 0.9375 18.2033 0.9375C18.7211 0.9375 19.1408 1.35722 19.1408 1.875C19.1408 2.39278 18.7211 2.8125 18.2033 2.8125C17.6855 2.8125 17.2658 2.39278 17.2658 1.875ZM16.7502 3.75C16.7502 4.26778 16.3305 4.6875 15.8127 4.6875C15.2949 4.6875 14.8752 4.26778 14.8752 3.75C14.8752 3.23222 15.2949 2.8125 15.8127 2.8125C16.3305 2.8125 16.7502 3.23222 16.7502 3.75ZM6.01582 10.3125C5.49804 10.3125 5.07832 10.7322 5.07832 11.25V15C5.07832 15.5178 5.49804 15.9375 6.01582 15.9375H11.1252C11.643 15.9375 12.0627 15.5178 12.0627 15V11.25C12.0627 10.7322 11.643 10.3125 11.1252 10.3125H6.01582ZM10.1877 14.0625H6.95332V12.1875H10.1877V14.0625Z" fill="#F5921C"/>
</svg>
