<svg width="24" height="24" viewBox="0 0 24 24" fill="none" xmlns="http://www.w3.org/2000/svg">
<path d="M23.1093 19.4542C22.5919 19.4277 22.1521 19.8265 22.126 20.3436C22.0757 21.3424 21.2554 22.125 20.2584 22.125H6.88234C5.88276 22.125 5.06208 21.3435 5.01429 20.3458C5.0077 20.2097 5.01027 20.1035 5.02217 20.0114C5.0489 19.8049 5.07856 19.5965 5.11079 19.3923C5.16151 19.0692 5.04029 18.743 4.79072 18.5316C2.89393 16.9239 2.14357 12.2933 1.93373 9.75H2.03407C2.037 9.75659 2.03993 9.763 2.04286 9.76959C2.18696 10.0897 2.42848 10.5884 2.76008 11.1469C3.61445 12.5854 4.56166 13.5945 5.5757 14.1462C5.79908 14.2676 6.06221 14.2932 6.30482 14.217C6.54725 14.1407 6.74849 13.9693 6.86219 13.7419C7.14143 13.1834 7.44172 12.6647 7.75978 12.1875H19.3806C20.2097 13.4264 20.8939 14.9143 21.3947 16.582C21.5436 17.0781 22.0664 17.3593 22.5624 17.2104C23.0582 17.0616 23.3395 16.5388 23.1906 16.043C22.6065 14.0977 21.7873 12.3596 20.7828 10.9177L21.617 4.78857C21.7814 3.57971 21.416 2.35986 20.6141 1.44159C19.8142 0.525513 18.6586 0 17.4435 0H9.64979C8.4347 0 7.27913 0.52533 6.47932 1.44141C5.6775 2.35986 5.31202 3.57971 5.47645 4.78857L6.318 10.9731C6.10798 11.2786 5.9051 11.5983 5.71009 11.9324C4.54426 10.8333 3.72779 9.00037 3.58534 8.60156C3.48957 8.18536 3.11677 7.875 2.67164 7.875H0.937267C0.682934 7.875 0.439587 7.97827 0.263073 8.16119C0.0863761 8.34393 -0.0084725 8.59076 0.000316552 8.84491C0.00324624 8.92859 0.0764885 10.923 0.525097 13.2612C1.09071 16.2081 1.98481 18.334 3.18653 19.5917C3.1783 19.6516 3.17024 19.7115 3.16255 19.7714C3.13618 19.9755 3.12959 20.1866 3.14149 20.4355C3.23726 22.4343 4.88044 24 6.88234 24H20.2584C22.2553 24 23.8981 22.4354 23.9987 20.4377C24.0247 19.9206 23.6264 19.4804 23.1093 19.4542ZM17.8148 10.3125H9.32002C10.6089 9.09558 12.067 8.4375 13.5701 8.4375C15.0523 8.4375 16.5124 9.08441 17.8148 10.3125ZM7.89161 2.67462C8.33528 2.1665 8.97615 1.875 9.64979 1.875H17.4435C18.1171 1.875 18.758 2.1665 19.2017 2.67462C19.6474 3.18512 19.8504 3.86353 19.759 4.53571L19.1519 8.99634C17.5664 7.48114 15.751 6.64783 13.8641 6.56927C14.25 6.45319 14.531 6.09558 14.531 5.67188C14.531 5.15405 14.1113 4.73438 13.5935 4.73438C13.0757 4.73438 12.656 5.15405 12.656 5.67188C12.656 6.09265 12.9332 6.44879 13.315 6.56726C11.3767 6.63684 9.53425 7.49872 7.94618 9.03241L7.33424 4.53571C7.24287 3.86353 7.44593 3.18512 7.89161 2.67462ZM3.60255 8.92365C3.60695 8.88721 3.60914 8.85004 3.60914 8.8125C3.60914 8.77405 3.60676 8.73596 3.60237 8.69861C3.61116 8.76691 3.61226 8.84344 3.60255 8.92365Z" fill="#F5921C"/>
</svg>
