<svg width="24" height="24" viewBox="0 0 24 24" fill="none" xmlns="http://www.w3.org/2000/svg">
<path d="M23.7243 16.5605L18.9633 11.8189L22.5937 8.19843C23.5007 7.29144 24.0002 6.08559 24.0002 4.80295C24.0002 3.52031 23.5007 2.31445 22.5937 1.40752C21.6868 0.500487 20.4809 0.00098772 19.1983 0.00098772C17.9156 0.00098772 16.7097 0.500487 15.8027 1.40747L12.1909 5.01928L7.42639 0.274222C7.24986 0.0984407 7.01047 -0.000231028 6.76156 0.00098772C6.51247 0.00187834 6.27397 0.101816 6.09866 0.278815L0.271638 6.16307C-0.0919707 6.53024 -0.0899082 7.12232 0.276232 7.48701L5.00929 12.201L2.3827 14.8276C2.26851 14.9418 2.18578 15.0835 2.14246 15.2391L0.0345916 22.8121C-0.0562989 23.1387 0.0361853 23.489 0.276607 23.7281C0.454731 23.9053 0.693418 24.0009 0.937824 24.0009C1.02323 24.0009 1.10939 23.9892 1.1939 23.9652L8.76687 21.8141C9.08637 21.7233 9.33406 21.4703 9.41787 21.1488C9.50168 20.8274 9.40915 20.4857 9.17464 20.2504L4.40033 15.4616L15.5245 4.33748L19.6615 8.47457L11.1456 16.9673C10.9689 17.1434 10.8698 17.3827 10.8701 17.6322C10.8704 17.8817 10.9701 18.1207 11.1472 18.2965L16.6203 23.7288C16.7959 23.9032 17.0334 24.0009 17.2807 24.0009C17.282 24.0009 17.2834 24.0009 17.2847 24.0009C17.5336 23.9999 17.7718 23.8999 17.9469 23.7231L23.7289 17.8844C24.0925 17.5173 24.0904 16.9251 23.7243 16.5605ZM6.72186 20.4459L2.28899 21.705L3.53048 17.2448L6.72186 20.4459ZM6.33514 10.8752L2.26171 6.81815L6.76944 2.26617L8.25697 3.74761L6.41009 5.62471C6.047 5.9938 6.05178 6.58738 6.42088 6.95048C6.60345 7.13015 6.84092 7.21972 7.07834 7.21972C7.32083 7.21972 7.56317 7.12621 7.74669 6.93974L9.58554 5.07079L10.8651 6.34518L6.33514 10.8752ZM16.8503 3.01162L17.1287 2.73328C17.6814 2.18044 18.4164 1.87598 19.1983 1.87598C19.9801 1.87598 20.7151 2.18044 21.2679 2.73333C21.8207 3.28612 22.1252 4.02112 22.1252 4.80295C22.1252 5.58477 21.8207 6.31977 21.2687 6.87168L20.9891 7.15054L16.8503 3.01162ZM17.275 21.7369L13.1368 17.6295L17.6357 13.1429L18.9005 14.4026L17.1006 16.2155C16.7358 16.5829 16.738 17.1765 17.1054 17.5413C17.2882 17.7228 17.5271 17.8135 17.7659 17.8135C18.0069 17.8135 18.248 17.7211 18.4312 17.5365L20.2291 15.7257L21.7388 17.2293L17.275 21.7369Z" fill="#F5921C"/>
</svg>
