<svg width="24" height="24" viewBox="0 0 24 24" fill="none" xmlns="http://www.w3.org/2000/svg">
<path d="M9.84386 0C15.2717 0 19.6876 4.41591 19.6876 9.84375C19.6876 12.2318 18.8329 14.4239 17.4133 16.1302L23.7233 22.3973C24.0906 22.7622 24.0926 23.3558 23.7278 23.7232C23.5445 23.9077 23.3036 24 23.0626 24C22.8238 24 22.5849 23.9093 22.402 23.7277L16.0834 17.452C14.3838 18.8483 12.21 19.6875 9.84386 19.6875C8.15514 19.6875 6.48874 19.2524 5.02493 18.4291C4.57361 18.1753 4.41353 17.6037 4.66736 17.1524C4.92114 16.7011 5.49274 16.541 5.94405 16.7948C7.12783 17.4606 8.47638 17.8125 9.84386 17.8125C14.2378 17.8125 17.8126 14.2377 17.8126 9.84375C17.8126 5.44978 14.2378 1.875 9.84386 1.875C5.44989 1.875 1.87511 5.44978 1.87511 9.84375C1.87511 11.228 2.23525 12.591 2.91653 13.7855C3.17308 14.2353 3.01642 14.8078 2.56671 15.0644C2.11694 15.3209 1.54441 15.1643 1.28786 14.7145C0.445423 13.2375 0.000110626 11.5532 0.000110626 9.84375C0.000110626 4.41591 4.41602 0 9.84386 0Z" fill="#F5921C"/>
</svg>
