<svg width="24" height="24" viewBox="0 0 24 24" fill="none" xmlns="http://www.w3.org/2000/svg">
<path d="M21.1865 9.89053C20.9429 9.89053 20.7065 9.92194 20.481 9.98044L20.9707 4.5405C20.971 4.53806 20.9711 4.53562 20.9713 4.53323C21.133 2.5658 19.7291 0.801047 17.7754 0.515531C16.166 0.280313 13.8494 0 11.9523 0C10.0649 0 7.79055 0.2775 6.21494 0.510328C4.26569 0.798281 2.86506 2.56256 3.02641 4.52686C3.0266 4.52934 3.02683 4.53173 3.02706 4.53417L3.51738 9.98044C3.29177 9.92194 3.05538 9.89053 2.81172 9.89053C1.26091 9.89053 -0.000732422 11.1522 -0.000732422 12.703C-0.000732422 16.6335 2.47975 19.2045 3.6108 20.1724L2.8488 22.8012C2.70466 23.2985 2.99097 23.8185 3.48827 23.9626C3.57545 23.9879 3.66325 24 3.74969 24C4.15628 24 4.53081 23.7333 4.64969 23.3232L5.39111 20.7654H18.6072L19.3487 23.3232C19.4676 23.7334 19.842 24 20.2487 24C20.335 24 20.4229 23.9879 20.5101 23.9626C21.0074 23.8185 21.2936 23.2985 21.1495 22.8012L20.212 19.5669C20.0908 19.1487 19.7037 18.8809 19.288 18.8916C19.2802 18.8914 19.2726 18.8904 19.2648 18.8904H5.0035C4.69492 18.6409 4.10111 18.1158 3.51625 17.3487C2.42669 15.9195 1.87422 14.3564 1.87422 12.7029C1.87422 12.186 2.29478 11.7654 2.81172 11.7654C3.32866 11.7654 3.74922 12.186 3.74922 12.7029C3.74922 12.74 3.75142 12.777 3.75578 12.8137L3.81995 13.3528C3.83805 13.9454 4.10781 14.4982 4.56635 14.8776C5.04166 15.2709 5.66195 15.4303 6.26833 15.3149C8.50956 14.8881 10.4377 14.6717 11.9992 14.6717C13.5607 14.6717 15.4888 14.8881 17.73 15.3149C18.3363 15.4305 18.9566 15.271 19.432 14.8776C19.8905 14.4982 20.1603 13.9454 20.1784 13.3529L20.2426 12.8138C20.2469 12.777 20.2491 12.74 20.2491 12.703C20.2491 12.186 20.6697 11.7655 21.1866 11.7655C21.7036 11.7655 22.1241 12.186 22.1241 12.703C22.1241 13.8515 21.8517 14.9703 21.3145 16.0285C21.0801 16.4902 21.2644 17.0545 21.7261 17.2889C22.1879 17.5234 22.752 17.339 22.9864 16.8773C23.6584 15.5536 23.9991 14.1492 23.9991 12.703C23.999 11.1522 22.7373 9.89053 21.1865 9.89053ZM19.1029 4.37653L18.3081 13.205C18.3079 13.2078 18.308 13.2105 18.3078 13.2133C18.3057 13.2385 18.3043 13.2638 18.3043 13.2891C18.3043 13.3618 18.2675 13.4076 18.2366 13.4331C18.2054 13.459 18.153 13.487 18.0807 13.473C15.7242 13.0243 13.678 12.7967 11.9991 12.7967C10.3202 12.7967 8.27411 13.0243 5.91752 13.473C5.84519 13.4867 5.79283 13.4589 5.76166 13.4331C5.73077 13.4076 5.69392 13.3618 5.69392 13.2891C5.69392 13.2638 5.69252 13.2385 5.69045 13.2133C5.69022 13.2105 5.69041 13.2078 5.69013 13.205L4.8948 4.3702C4.81591 3.3893 5.51561 2.50889 6.48902 2.36513C8.00247 2.14158 10.1788 1.875 11.9523 1.875C13.7367 1.875 15.9564 2.14462 17.5043 2.37084C18.4803 2.51344 19.1819 3.39412 19.1029 4.37653Z" fill="#F5921C"/>
</svg>
