<svg width="24" height="24" viewBox="0 0 24 24" fill="none" xmlns="http://www.w3.org/2000/svg">
<path d="M23.6332 3.94373C23.4695 3.8183 19.589 0.860048 16.1815 0.071045C16.1786 0.0703125 16.1757 0.0701294 16.1728 0.069397C16.1548 0.0655518 16.1363 0.0626221 16.1178 0.0596924C16.1041 0.057312 16.0904 0.0549317 16.0766 0.0532837C16.0627 0.0518189 16.0484 0.0510864 16.0341 0.0501709C16.0158 0.0488892 15.9975 0.0474243 15.9794 0.0472412C15.9763 0.0472412 15.9732 0.046875 15.9701 0.046875H8.0295C8.01998 0.046875 8.01064 0.0479737 8.00093 0.0483398C7.98262 0.0488892 7.96413 0.0494385 7.94545 0.0510864C7.92934 0.0525513 7.91359 0.0549317 7.89748 0.0571289C7.88704 0.0587769 7.87642 0.0593262 7.8658 0.0611573C7.85866 0.062439 7.85134 0.064087 7.84419 0.0653687C7.84236 0.0657349 7.84053 0.0661011 7.8387 0.0664673C4.7325 0.631349 0.5456 3.80695 0.368354 3.94227C0.0770324 4.16474 -0.0579166 4.53626 0.0228331 4.89387L1.14417 9.86263C1.24067 10.29 1.62043 10.5936 2.0586 10.5936H4.03102V20.2967C4.03102 22.3645 5.71321 24.0467 7.78102 24.0467H16.2185C18.2863 24.0467 19.9685 22.3645 19.9685 20.2967C19.9685 19.7789 19.5489 19.3592 19.031 19.3592C18.5132 19.3592 18.0935 19.7789 18.0935 20.2967C18.0935 21.3307 17.2524 22.1717 16.2185 22.1717H7.78102C6.74721 22.1717 5.90602 21.3307 5.90602 20.2967V7.78108C5.90602 7.26344 5.48634 6.84358 4.96852 6.84358C4.4507 6.84358 4.03102 7.26344 4.03102 7.78108V8.71858H2.80824L1.98664 5.0788C3.21272 4.20191 5.53541 2.70649 7.40364 2.10828C7.71803 2.90827 8.18862 3.6991 8.74068 4.33631C9.71023 5.45527 10.8372 6.04688 11.9998 6.04688C13.1621 6.04688 14.2892 5.45527 15.2589 4.33631C15.8049 3.70606 16.2713 2.92511 16.5857 2.1341C18.7388 2.85572 21.0317 4.38593 22.0072 5.07807L21.1512 8.71858H19.9685V7.78108C19.9685 7.26344 19.5487 6.84358 19.031 6.84358C18.5132 6.84358 18.0935 7.26344 18.0935 7.78108V15.6092C18.0935 16.127 18.5132 16.5467 19.031 16.5467C19.5487 16.5467 19.9685 16.127 19.9685 15.6092V10.5936H21.8939C22.329 10.5936 22.7071 10.2942 22.8065 9.87068L23.9749 4.90211C24.0593 4.54322 23.9255 4.16822 23.6332 3.94373ZM11.9998 4.17188C11.0143 4.17188 9.97463 3.12873 9.36855 1.92188H14.631C14.0249 3.12873 12.9853 4.17188 11.9998 4.17188Z" fill="#F5921C"/>
</svg>
