<svg width="101" height="14" viewBox="0 0 101 14" fill="none" xmlns="http://www.w3.org/2000/svg">
<path d="M2.99621 13.8951C3.26117 14.0763 3.58132 14.0194 3.97324 13.7502L7.81514 11.1099L11.657 13.7502C12.049 14.0194 12.3746 14.0763 12.6341 13.8951C12.888 13.7139 12.9487 13.4137 12.7942 12.9788L11.2872 8.74399L15.1567 6.13477C15.5486 5.87074 15.7032 5.59636 15.5983 5.30645C15.4989 5.02689 15.2119 4.87676 14.7151 4.88193L9.96793 4.90782L8.51618 0.657482C8.36714 0.217435 8.1353 0 7.81514 0C7.49498 0 7.26314 0.217435 7.11411 0.657482L5.66235 4.90782L0.915179 4.88193C0.423901 4.87676 0.131343 5.02689 0.0319833 5.30645C-0.0728962 5.59636 0.081663 5.87074 0.473581 6.13477L4.34308 8.74399L2.84165 12.9788C2.68157 13.4137 2.74229 13.7139 2.99621 13.8951Z" fill="#F5921C"/>
<path d="M24.38 13.8951C24.645 14.0763 24.9651 14.0194 25.357 13.7502L29.1989 11.1099L33.0408 13.7502C33.4327 14.0194 33.7584 14.0763 34.0179 13.8951C34.2718 13.7139 34.3325 13.4137 34.1779 12.9788L32.671 8.74399L36.5405 6.13477C36.9324 5.87074 37.087 5.59636 36.9821 5.30645C36.8827 5.02689 36.5957 4.87676 36.0989 4.88193L31.3517 4.90782L29.9 0.657482C29.7509 0.217435 29.5191 0 29.1989 0C28.8788 0 28.6469 0.217435 28.4979 0.657482L27.0461 4.90782L22.299 4.88193C21.8077 4.87676 21.5151 5.02689 21.4158 5.30645C21.3109 5.59636 21.4655 5.87074 21.8574 6.13477L25.7269 8.74399L24.2254 12.9788C24.0654 13.4137 24.1261 13.7139 24.38 13.8951Z" fill="#F5921C"/>
<path d="M45.7638 13.8951C46.0287 14.0763 46.3489 14.0194 46.7408 13.7502L50.5827 11.1099L54.4246 13.7502C54.8165 14.0194 55.1422 14.0763 55.4017 13.8951C55.6556 13.7139 55.7163 13.4137 55.5617 12.9788L54.0548 8.74399L57.9243 6.13477C58.3162 5.87074 58.4708 5.59636 58.3659 5.30645C58.2665 5.02689 57.9795 4.87676 57.4827 4.88193L52.7355 4.90782L51.2838 0.657482C51.1347 0.217435 50.9029 0 50.5827 0C50.2626 0 50.0307 0.217435 49.8817 0.657482L48.4299 4.90782L43.6828 4.88193C43.1915 4.87676 42.8989 5.02689 42.7996 5.30645C42.6947 5.59636 42.8492 5.87074 43.2412 6.13477L47.1107 8.74399L45.6092 12.9788C45.4491 13.4137 45.5099 13.7139 45.7638 13.8951Z" fill="#F5921C"/>
<path d="M67.1134 13.8951C67.3756 14.0763 67.6925 14.0194 68.0803 13.7502L71.8822 11.1099L75.6841 13.7502C76.0719 14.0194 76.3942 14.0763 76.6509 13.8951C76.9022 13.7139 76.9623 13.4137 76.8093 12.9788L75.3181 8.74399L79.1473 6.13477C79.5351 5.87074 79.688 5.59636 79.5843 5.30645C79.4859 5.02689 79.2019 4.87676 78.7103 4.88193L74.0125 4.90782L72.5759 0.657482C72.4284 0.217435 72.199 0 71.8822 0C71.5653 0 71.3359 0.217435 71.1884 0.657482L69.7518 4.90782L65.0541 4.88193C64.5679 4.87676 64.2784 5.02689 64.1801 5.30645C64.0763 5.59636 64.2292 5.87074 64.6171 6.13477L68.4463 8.74399L66.9605 12.9788C66.8021 13.4137 66.8622 13.7139 67.1134 13.8951Z" fill="#F5921C"/>
<path d="M93.5512 10.6992L93.266 10.5011L92.9808 10.6992L89.179 13.3394C89.1789 13.3394 89.1789 13.3395 89.1789 13.3395C89.0177 13.4513 88.9132 13.4886 88.8559 13.4976C88.819 13.5034 88.8043 13.4988 88.7858 13.4867C88.7723 13.4764 88.7679 13.4698 88.7667 13.468C88.7657 13.4664 88.7623 13.4609 88.7596 13.4458C88.7534 13.4104 88.7522 13.3198 88.8141 13.1499L88.8141 13.1499L88.8161 13.1443L90.3019 8.90952L90.429 8.54709L90.1116 8.3308L86.2824 5.72158L86.2822 5.72146C86.1222 5.61251 86.0594 5.53286 86.0389 5.49445C86.0355 5.48804 86.0336 5.48361 86.0327 5.48097C86.0331 5.47956 86.0337 5.47759 86.0346 5.47497L86.0346 5.47497L86.0356 5.47234C86.0357 5.47185 86.0359 5.47135 86.0361 5.47082C86.0385 5.46349 86.042 5.45294 86.0769 5.43572C86.1275 5.41069 86.2355 5.37981 86.4325 5.38191L86.4351 5.38192L91.1328 5.40781L91.4937 5.4098L91.6093 5.06792L93.0459 0.817586L93.0463 0.816375C93.1052 0.640554 93.1648 0.559589 93.1995 0.526632C93.2221 0.50523 93.2356 0.5 93.266 0.5C93.2963 0.5 93.3098 0.50523 93.3324 0.526632C93.3672 0.559589 93.4267 0.640554 93.4856 0.816376L93.486 0.817585L94.9226 5.06792L95.0382 5.4098L95.3991 5.40781L100.097 5.38193L100.099 5.3819C100.3 5.37979 100.407 5.41095 100.456 5.4353C100.489 5.45167 100.493 5.46134 100.496 5.47081C100.496 5.47132 100.496 5.47183 100.496 5.47235L100.497 5.47497C100.498 5.47759 100.499 5.47956 100.499 5.48097C100.498 5.48361 100.496 5.48804 100.493 5.49445C100.472 5.53286 100.41 5.61251 100.25 5.72146L100.249 5.72158L96.4203 8.3308L96.1025 8.54734L96.2302 8.91007L97.7214 13.1447C97.7814 13.3152 97.78 13.4067 97.7734 13.4437C97.7705 13.4596 97.7668 13.4656 97.7655 13.4676C97.7641 13.4698 97.7592 13.4771 97.7441 13.4882C97.7303 13.4977 97.7177 13.5038 97.6778 13.4976C97.6191 13.4884 97.513 13.4505 97.3529 13.3394L93.5512 10.6992Z" stroke="#D2D2D2"/>
</svg>
